<mxfile host="app.diagrams.net" agent="Mozilla/5.0 (X11; Linux x86_64; rv:133.0) Gecko/20100101 Firefox/133.0" border="50" scale="3" compressed="false" locked="false" version="26.0.14" pages="2">
  <diagram name="Blank" id="YmL12bMKpDGza6XwsDPr">
    <mxGraphModel dx="1434" dy="726" grid="0" gridSize="10" guides="1" tooltips="1" connect="1" arrows="1" fold="1" page="0" pageScale="1" pageWidth="827" pageHeight="1169" background="none" math="1" shadow="0">
      <root>
        <mxCell id="X5NqExCQtvZxIxQ7pmgY-0" />
        <mxCell id="1" parent="X5NqExCQtvZxIxQ7pmgY-0" />
        <mxCell id="Gr0Zq-AI6Quabplr0KPa-179" value="Mindmap" style="swimlane;html=1;startSize=20;horizontal=1;containerType=tree;labelBackgroundColor=none;strokeColor=#D4E1F5;strokeWidth=1;fillColor=none;fontFamily=Comic Sans MS;fontSize=9;swimlaneLine=0;dashed=1;collapsible=0;" parent="1" vertex="1">
          <mxGeometry x="84" y="80" width="659" height="441" as="geometry" />
        </mxCell>
        <mxCell id="Gr0Zq-AI6Quabplr0KPa-180" value="&lt;font face=&quot;Comic Sans MS&quot;&gt;MIND&lt;br&gt;MAPPING&lt;/font&gt;" style="ellipse;whiteSpace=wrap;html=1;align=center;container=1;recursiveResize=0;treeFolding=1;strokeWidth=2;" parent="Gr0Zq-AI6Quabplr0KPa-179" vertex="1">
          <mxGeometry x="273" y="172" width="108" height="53" as="geometry" />
        </mxCell>
        <mxCell id="Gr0Zq-AI6Quabplr0KPa-181" value="" style="whiteSpace=wrap;html=1;rounded=1;arcSize=50;align=center;verticalAlign=middle;container=1;recursiveResize=0;strokeWidth=1;autosize=1;spacing=4;treeFolding=1;" parent="Gr0Zq-AI6Quabplr0KPa-179" vertex="1">
          <mxGeometry x="471" y="158" height="1" as="geometry" />
        </mxCell>
        <mxCell id="Gr0Zq-AI6Quabplr0KPa-182" value="" style="edgeStyle=entityRelationEdgeStyle;startArrow=none;endArrow=none;segment=10;curved=1;strokeWidth=2;strokeColor=#660000;rounded=0;fontSize=12;startSize=8;endSize=8;" parent="Gr0Zq-AI6Quabplr0KPa-179" source="Gr0Zq-AI6Quabplr0KPa-180" target="Gr0Zq-AI6Quabplr0KPa-181" edge="1">
          <mxGeometry relative="1" as="geometry">
            <mxPoint x="163" y="175.5" as="sourcePoint" />
            <mxPoint x="225" y="198" as="targetPoint" />
          </mxGeometry>
        </mxCell>
        <mxCell id="Gr0Zq-AI6Quabplr0KPa-183" value="Planning" style="text;html=1;resizable=0;points=[];align=center;verticalAlign=middle;labelBackgroundColor=none;rotation=-30;fontFamily=Comic Sans MS;" parent="Gr0Zq-AI6Quabplr0KPa-182" vertex="1" connectable="0">
          <mxGeometry x="0.0245" y="2" relative="1" as="geometry">
            <mxPoint x="1" y="-9" as="offset" />
          </mxGeometry>
        </mxCell>
        <mxCell id="Gr0Zq-AI6Quabplr0KPa-184" value="" style="whiteSpace=wrap;html=1;rounded=1;arcSize=50;align=center;verticalAlign=middle;container=1;recursiveResize=0;strokeWidth=1;autosize=1;spacing=4;treeFolding=1;collapsible=0;" parent="Gr0Zq-AI6Quabplr0KPa-179" vertex="1" collapsed="1">
          <mxGeometry x="562" y="108" width="5" as="geometry" />
        </mxCell>
        <mxCell id="Gr0Zq-AI6Quabplr0KPa-185" value="" style="edgeStyle=entityRelationEdgeStyle;startArrow=none;endArrow=none;segment=10;curved=1;strokeColor=#660000;rounded=0;fontSize=12;startSize=8;endSize=8;" parent="Gr0Zq-AI6Quabplr0KPa-179" source="Gr0Zq-AI6Quabplr0KPa-181" target="Gr0Zq-AI6Quabplr0KPa-184" edge="1">
          <mxGeometry relative="1" as="geometry">
            <mxPoint x="194" y="91.5" as="sourcePoint" />
            <mxPoint x="256" y="114" as="targetPoint" />
          </mxGeometry>
        </mxCell>
        <mxCell id="Gr0Zq-AI6Quabplr0KPa-186" value="Projects" style="text;html=1;resizable=0;points=[];align=center;verticalAlign=middle;labelBackgroundColor=none;fontFamily=Comic Sans MS;rotation=-30;" parent="Gr0Zq-AI6Quabplr0KPa-185" vertex="1">
          <mxGeometry x="0.2571" relative="1" as="geometry">
            <mxPoint x="3" y="-14" as="offset" />
          </mxGeometry>
        </mxCell>
        <mxCell id="Gr0Zq-AI6Quabplr0KPa-187" value="" style="whiteSpace=wrap;html=1;rounded=1;arcSize=50;align=center;verticalAlign=middle;container=1;recursiveResize=0;strokeWidth=1;autosize=1;spacing=4;treeFolding=1;collapsible=0;" parent="Gr0Zq-AI6Quabplr0KPa-179" vertex="1">
          <mxGeometry x="567" y="159" height="1" as="geometry" />
        </mxCell>
        <mxCell id="Gr0Zq-AI6Quabplr0KPa-188" value="" style="edgeStyle=entityRelationEdgeStyle;startArrow=none;endArrow=none;segment=10;curved=1;strokeColor=#660000;rounded=0;fontSize=12;startSize=8;endSize=8;" parent="Gr0Zq-AI6Quabplr0KPa-179" source="Gr0Zq-AI6Quabplr0KPa-181" target="Gr0Zq-AI6Quabplr0KPa-187" edge="1">
          <mxGeometry relative="1" as="geometry">
            <mxPoint x="189" y="81.5" as="sourcePoint" />
            <mxPoint x="251" y="104" as="targetPoint" />
          </mxGeometry>
        </mxCell>
        <mxCell id="Gr0Zq-AI6Quabplr0KPa-189" value="Goals" style="text;html=1;resizable=0;points=[];align=center;verticalAlign=middle;labelBackgroundColor=none;fontFamily=Comic Sans MS;rotation=0;" parent="Gr0Zq-AI6Quabplr0KPa-188" vertex="1" connectable="0">
          <mxGeometry x="-0.1124" y="-1" relative="1" as="geometry">
            <mxPoint x="24" y="-12" as="offset" />
          </mxGeometry>
        </mxCell>
        <mxCell id="Gr0Zq-AI6Quabplr0KPa-190" value="" style="whiteSpace=wrap;html=1;rounded=1;arcSize=50;align=center;verticalAlign=middle;container=1;recursiveResize=0;strokeWidth=1;autosize=1;spacing=4;treeFolding=1;collapsible=0;" parent="Gr0Zq-AI6Quabplr0KPa-179" vertex="1">
          <mxGeometry x="567" y="215" height="1" as="geometry" />
        </mxCell>
        <mxCell id="Gr0Zq-AI6Quabplr0KPa-191" value="" style="edgeStyle=entityRelationEdgeStyle;startArrow=none;endArrow=none;segment=10;curved=1;strokeColor=#660000;rounded=0;fontSize=12;startSize=8;endSize=8;" parent="Gr0Zq-AI6Quabplr0KPa-179" source="Gr0Zq-AI6Quabplr0KPa-181" target="Gr0Zq-AI6Quabplr0KPa-190" edge="1">
          <mxGeometry relative="1" as="geometry">
            <mxPoint x="251" y="158.5" as="sourcePoint" />
            <mxPoint x="251" y="104" as="targetPoint" />
          </mxGeometry>
        </mxCell>
        <mxCell id="Gr0Zq-AI6Quabplr0KPa-192" value="Strategies" style="text;html=1;resizable=0;points=[];align=center;verticalAlign=middle;labelBackgroundColor=none;fontFamily=Comic Sans MS;rotation=30;" parent="Gr0Zq-AI6Quabplr0KPa-191" vertex="1" connectable="0">
          <mxGeometry x="-0.1124" y="-1" relative="1" as="geometry">
            <mxPoint x="28" y="1" as="offset" />
          </mxGeometry>
        </mxCell>
        <mxCell id="Gr0Zq-AI6Quabplr0KPa-193" value="" style="whiteSpace=wrap;html=1;rounded=1;arcSize=50;align=center;verticalAlign=middle;container=1;recursiveResize=0;strokeWidth=1;autosize=1;spacing=4;treeFolding=1;" parent="Gr0Zq-AI6Quabplr0KPa-179" vertex="1">
          <mxGeometry x="474" y="332" height="1" as="geometry" />
        </mxCell>
        <mxCell id="Gr0Zq-AI6Quabplr0KPa-194" value="" style="edgeStyle=entityRelationEdgeStyle;startArrow=none;endArrow=none;segment=10;curved=1;strokeWidth=2;strokeColor=#000099;rounded=0;fontSize=12;startSize=8;endSize=8;" parent="Gr0Zq-AI6Quabplr0KPa-179" source="Gr0Zq-AI6Quabplr0KPa-180" target="Gr0Zq-AI6Quabplr0KPa-193" edge="1">
          <mxGeometry relative="1" as="geometry">
            <mxPoint x="161" y="198.5" as="sourcePoint" />
            <mxPoint x="265" y="268.5" as="targetPoint" />
          </mxGeometry>
        </mxCell>
        <mxCell id="Gr0Zq-AI6Quabplr0KPa-195" value="Creativity" style="text;html=1;resizable=0;points=[];align=center;verticalAlign=middle;labelBackgroundColor=none;rotation=60;fontFamily=Comic Sans MS;" parent="Gr0Zq-AI6Quabplr0KPa-194" vertex="1" connectable="0">
          <mxGeometry x="0.0245" y="2" relative="1" as="geometry">
            <mxPoint x="13" y="6" as="offset" />
          </mxGeometry>
        </mxCell>
        <mxCell id="Gr0Zq-AI6Quabplr0KPa-196" value="" style="whiteSpace=wrap;html=1;rounded=1;arcSize=50;align=center;verticalAlign=middle;container=1;recursiveResize=0;strokeWidth=1;autosize=1;spacing=4;treeFolding=1;collapsible=0;" parent="Gr0Zq-AI6Quabplr0KPa-179" vertex="1">
          <mxGeometry x="572" y="292" width="5" as="geometry" />
        </mxCell>
        <mxCell id="Gr0Zq-AI6Quabplr0KPa-197" value="" style="edgeStyle=entityRelationEdgeStyle;startArrow=none;endArrow=none;segment=10;curved=1;strokeColor=#000099;rounded=0;fontSize=12;startSize=8;endSize=8;" parent="Gr0Zq-AI6Quabplr0KPa-179" source="Gr0Zq-AI6Quabplr0KPa-193" target="Gr0Zq-AI6Quabplr0KPa-196" edge="1">
          <mxGeometry relative="1" as="geometry">
            <mxPoint x="197" y="265.5" as="sourcePoint" />
            <mxPoint x="259" y="288" as="targetPoint" />
          </mxGeometry>
        </mxCell>
        <mxCell id="Gr0Zq-AI6Quabplr0KPa-198" value="Ideas" style="text;html=1;resizable=0;points=[];align=center;verticalAlign=middle;labelBackgroundColor=none;fontFamily=Comic Sans MS;rotation=-30;" parent="Gr0Zq-AI6Quabplr0KPa-197" vertex="1" connectable="0">
          <mxGeometry x="0.2571" relative="1" as="geometry">
            <mxPoint x="3" y="-14" as="offset" />
          </mxGeometry>
        </mxCell>
        <mxCell id="Gr0Zq-AI6Quabplr0KPa-199" value="" style="whiteSpace=wrap;html=1;rounded=1;arcSize=50;align=center;verticalAlign=middle;container=1;recursiveResize=0;strokeWidth=1;autosize=1;spacing=4;treeFolding=1;collapsible=0;" parent="Gr0Zq-AI6Quabplr0KPa-179" vertex="1">
          <mxGeometry x="594" y="342" height="1" as="geometry" />
        </mxCell>
        <mxCell id="Gr0Zq-AI6Quabplr0KPa-200" value="" style="edgeStyle=entityRelationEdgeStyle;startArrow=none;endArrow=none;segment=10;curved=1;strokeColor=#000099;rounded=0;fontSize=12;startSize=8;endSize=8;" parent="Gr0Zq-AI6Quabplr0KPa-179" source="Gr0Zq-AI6Quabplr0KPa-193" target="Gr0Zq-AI6Quabplr0KPa-199" edge="1">
          <mxGeometry relative="1" as="geometry">
            <mxPoint x="192" y="255.5" as="sourcePoint" />
            <mxPoint x="254" y="278" as="targetPoint" />
          </mxGeometry>
        </mxCell>
        <mxCell id="Gr0Zq-AI6Quabplr0KPa-201" value="Innovation" style="text;html=1;resizable=0;points=[];align=center;verticalAlign=middle;labelBackgroundColor=none;fontFamily=Comic Sans MS;rotation=0;" parent="Gr0Zq-AI6Quabplr0KPa-200" vertex="1" connectable="0">
          <mxGeometry x="-0.1124" y="-1" relative="1" as="geometry">
            <mxPoint x="24" y="-12" as="offset" />
          </mxGeometry>
        </mxCell>
        <mxCell id="Gr0Zq-AI6Quabplr0KPa-202" value="" style="whiteSpace=wrap;html=1;rounded=1;arcSize=50;align=center;verticalAlign=middle;container=1;recursiveResize=0;strokeWidth=1;autosize=1;spacing=4;treeFolding=1;collapsible=0;" parent="Gr0Zq-AI6Quabplr0KPa-179" vertex="1">
          <mxGeometry x="594" y="402" height="1" as="geometry" />
        </mxCell>
        <mxCell id="Gr0Zq-AI6Quabplr0KPa-203" value="" style="edgeStyle=entityRelationEdgeStyle;startArrow=none;endArrow=none;segment=10;curved=1;strokeColor=#000099;rounded=0;fontSize=12;startSize=8;endSize=8;" parent="Gr0Zq-AI6Quabplr0KPa-179" source="Gr0Zq-AI6Quabplr0KPa-193" target="Gr0Zq-AI6Quabplr0KPa-202" edge="1">
          <mxGeometry relative="1" as="geometry">
            <mxPoint x="254" y="332.5" as="sourcePoint" />
            <mxPoint x="254" y="278" as="targetPoint" />
          </mxGeometry>
        </mxCell>
        <mxCell id="Gr0Zq-AI6Quabplr0KPa-204" value="Thoughts" style="text;html=1;resizable=0;points=[];align=center;verticalAlign=middle;labelBackgroundColor=none;fontFamily=Comic Sans MS;rotation=30;" parent="Gr0Zq-AI6Quabplr0KPa-203" vertex="1" connectable="0">
          <mxGeometry x="-0.1124" y="-1" relative="1" as="geometry">
            <mxPoint x="28" y="1" as="offset" />
          </mxGeometry>
        </mxCell>
        <mxCell id="Gr0Zq-AI6Quabplr0KPa-205" value="" style="shape=image;html=1;verticalAlign=top;verticalLabelPosition=bottom;labelBackgroundColor=#ffffff;imageAspect=0;aspect=fixed;image=https://cdn2.iconfinder.com/data/icons/bitsies/128/Lightbulb-128.png;strokeColor=#000000;fillColor=none;fontFamily=Comic Sans MS;rotation=-30;" parent="Gr0Zq-AI6Quabplr0KPa-179" vertex="1">
          <mxGeometry x="553" y="267" width="24" height="24" as="geometry" />
        </mxCell>
        <mxCell id="Gr0Zq-AI6Quabplr0KPa-206" style="edgeStyle=entityRelationEdgeStyle;jumpStyle=arc;html=1;endArrow=classicThin;endFill=1;jettySize=auto;orthogonalLoop=1;strokeColor=none;strokeWidth=2;fontFamily=Comic Sans MS;rounded=0;fontSize=12;startSize=8;endSize=8;curved=1;" parent="Gr0Zq-AI6Quabplr0KPa-179" source="Gr0Zq-AI6Quabplr0KPa-196" target="Gr0Zq-AI6Quabplr0KPa-205" edge="1">
          <mxGeometry relative="1" as="geometry" />
        </mxCell>
        <mxCell id="Gr0Zq-AI6Quabplr0KPa-207" value="" style="shape=image;html=1;verticalAlign=top;verticalLabelPosition=bottom;labelBackgroundColor=#ffffff;imageAspect=0;aspect=fixed;image=https://cdn2.iconfinder.com/data/icons/ios-7-icons/50/finish_flag-128.png;strokeColor=#000000;fillColor=none;fontFamily=Comic Sans MS;" parent="Gr0Zq-AI6Quabplr0KPa-179" vertex="1">
          <mxGeometry x="553" y="138" width="18" height="18" as="geometry" />
        </mxCell>
        <mxCell id="Gr0Zq-AI6Quabplr0KPa-208" style="edgeStyle=entityRelationEdgeStyle;jumpStyle=arc;html=1;endArrow=classicThin;endFill=1;jettySize=auto;orthogonalLoop=1;strokeColor=none;strokeWidth=2;fontFamily=Comic Sans MS;rounded=0;fontSize=12;startSize=8;endSize=8;curved=1;" parent="Gr0Zq-AI6Quabplr0KPa-179" source="Gr0Zq-AI6Quabplr0KPa-187" target="Gr0Zq-AI6Quabplr0KPa-207" edge="1">
          <mxGeometry relative="1" as="geometry" />
        </mxCell>
        <mxCell id="Gr0Zq-AI6Quabplr0KPa-209" value="" style="whiteSpace=wrap;html=1;rounded=1;arcSize=50;align=center;verticalAlign=middle;container=1;recursiveResize=0;strokeWidth=1;autosize=1;spacing=4;treeFolding=1;" parent="Gr0Zq-AI6Quabplr0KPa-179" vertex="1">
          <mxGeometry x="193" y="120" height="1" as="geometry" />
        </mxCell>
        <mxCell id="Gr0Zq-AI6Quabplr0KPa-210" value="" style="edgeStyle=entityRelationEdgeStyle;startArrow=none;endArrow=none;segment=10;curved=1;strokeWidth=2;strokeColor=#336600;rounded=0;fontSize=12;startSize=8;endSize=8;" parent="Gr0Zq-AI6Quabplr0KPa-179" source="Gr0Zq-AI6Quabplr0KPa-180" target="Gr0Zq-AI6Quabplr0KPa-209" edge="1">
          <mxGeometry relative="1" as="geometry">
            <mxPoint x="161" y="198.5" as="sourcePoint" />
            <mxPoint x="251" y="158.5" as="targetPoint" />
          </mxGeometry>
        </mxCell>
        <mxCell id="Gr0Zq-AI6Quabplr0KPa-211" value="Benefits" style="text;html=1;resizable=0;points=[];align=center;verticalAlign=middle;labelBackgroundColor=none;rotation=50;fontFamily=Comic Sans MS;" parent="Gr0Zq-AI6Quabplr0KPa-210" vertex="1" connectable="0">
          <mxGeometry x="0.0245" y="2" relative="1" as="geometry">
            <mxPoint x="12" y="-7" as="offset" />
          </mxGeometry>
        </mxCell>
        <mxCell id="Gr0Zq-AI6Quabplr0KPa-212" value="" style="whiteSpace=wrap;html=1;rounded=1;arcSize=50;align=center;verticalAlign=middle;container=1;recursiveResize=0;strokeWidth=1;autosize=1;spacing=4;treeFolding=1;collapsible=0;" parent="Gr0Zq-AI6Quabplr0KPa-179" vertex="1">
          <mxGeometry x="75" y="171" height="1" as="geometry" />
        </mxCell>
        <mxCell id="Gr0Zq-AI6Quabplr0KPa-213" value="" style="edgeStyle=entityRelationEdgeStyle;startArrow=none;endArrow=none;segment=10;curved=1;strokeColor=#336600;rounded=0;fontSize=12;startSize=8;endSize=8;" parent="Gr0Zq-AI6Quabplr0KPa-179" source="Gr0Zq-AI6Quabplr0KPa-209" target="Gr0Zq-AI6Quabplr0KPa-212" edge="1">
          <mxGeometry relative="1" as="geometry">
            <mxPoint x="-168" y="167.5" as="sourcePoint" />
            <mxPoint x="-168" y="113" as="targetPoint" />
          </mxGeometry>
        </mxCell>
        <mxCell id="Gr0Zq-AI6Quabplr0KPa-214" value="Simple, fast &amp;amp; fun" style="text;html=1;resizable=0;points=[];align=center;verticalAlign=middle;labelBackgroundColor=none;fontFamily=Comic Sans MS;rotation=-26;fontSize=9;" parent="Gr0Zq-AI6Quabplr0KPa-213" vertex="1" connectable="0">
          <mxGeometry x="-0.1124" y="-1" relative="1" as="geometry">
            <mxPoint x="-27" y="7" as="offset" />
          </mxGeometry>
        </mxCell>
        <mxCell id="Gr0Zq-AI6Quabplr0KPa-215" value="" style="whiteSpace=wrap;html=1;rounded=1;arcSize=50;align=center;verticalAlign=middle;container=1;recursiveResize=0;strokeWidth=1;autosize=1;spacing=4;treeFolding=1;collapsible=0;" parent="Gr0Zq-AI6Quabplr0KPa-179" vertex="1">
          <mxGeometry x="82" y="125" height="1" as="geometry" />
        </mxCell>
        <mxCell id="Gr0Zq-AI6Quabplr0KPa-216" value="" style="edgeStyle=entityRelationEdgeStyle;startArrow=none;endArrow=none;segment=10;curved=1;strokeColor=#336600;rounded=0;fontSize=12;startSize=8;endSize=8;" parent="Gr0Zq-AI6Quabplr0KPa-179" source="Gr0Zq-AI6Quabplr0KPa-209" target="Gr0Zq-AI6Quabplr0KPa-215" edge="1">
          <mxGeometry relative="1" as="geometry">
            <mxPoint x="-230" y="90.5" as="sourcePoint" />
            <mxPoint x="-168" y="113" as="targetPoint" />
          </mxGeometry>
        </mxCell>
        <mxCell id="Gr0Zq-AI6Quabplr0KPa-217" value="Easy to memorize" style="text;html=1;resizable=0;points=[];align=center;verticalAlign=middle;labelBackgroundColor=none;fontFamily=Comic Sans MS;rotation=-1;fontSize=10;" parent="Gr0Zq-AI6Quabplr0KPa-216" vertex="1" connectable="0">
          <mxGeometry x="-0.1124" y="-1" relative="1" as="geometry">
            <mxPoint x="-18" y="-6" as="offset" />
          </mxGeometry>
        </mxCell>
        <mxCell id="Gr0Zq-AI6Quabplr0KPa-218" value="" style="whiteSpace=wrap;html=1;rounded=1;arcSize=50;align=center;verticalAlign=middle;container=1;recursiveResize=0;strokeWidth=1;autosize=1;spacing=4;treeFolding=1;collapsible=0;" parent="Gr0Zq-AI6Quabplr0KPa-179" vertex="1" collapsed="1">
          <mxGeometry x="89" y="83" width="5" as="geometry" />
        </mxCell>
        <mxCell id="Gr0Zq-AI6Quabplr0KPa-219" value="" style="edgeStyle=entityRelationEdgeStyle;startArrow=none;endArrow=none;segment=10;curved=1;strokeColor=#336600;rounded=0;fontSize=12;startSize=8;endSize=8;" parent="Gr0Zq-AI6Quabplr0KPa-179" source="Gr0Zq-AI6Quabplr0KPa-209" target="Gr0Zq-AI6Quabplr0KPa-218" edge="1">
          <mxGeometry relative="1" as="geometry">
            <mxPoint x="-225" y="100.5" as="sourcePoint" />
            <mxPoint x="-163" y="123" as="targetPoint" />
          </mxGeometry>
        </mxCell>
        <mxCell id="Gr0Zq-AI6Quabplr0KPa-220" value="Overview" style="text;html=1;resizable=0;points=[];align=center;verticalAlign=middle;labelBackgroundColor=none;fontFamily=Comic Sans MS;rotation=20;" parent="Gr0Zq-AI6Quabplr0KPa-219" vertex="1" connectable="0">
          <mxGeometry x="0.2571" relative="1" as="geometry">
            <mxPoint x="-2" y="-13" as="offset" />
          </mxGeometry>
        </mxCell>
        <mxCell id="Gr0Zq-AI6Quabplr0KPa-221" value="" style="shape=image;html=1;verticalAlign=top;verticalLabelPosition=bottom;labelBackgroundColor=#ffffff;imageAspect=0;aspect=fixed;image=https://cdn2.iconfinder.com/data/icons/basicset/tick_64.png;strokeColor=#000099;strokeWidth=2;fillColor=none;fontFamily=Comic Sans MS;fontSize=10;rotation=28;" parent="Gr0Zq-AI6Quabplr0KPa-179" vertex="1">
          <mxGeometry x="157" y="88" width="17" height="17" as="geometry" />
        </mxCell>
        <mxCell id="Gr0Zq-AI6Quabplr0KPa-222" value="" style="endArrow=classic;html=1;curved=1;sourcePerimeterSpacing=10;strokeColor=#999900;targetPerimeterSpacing=7;rounded=0;fontSize=12;startSize=8;endSize=8;" parent="Gr0Zq-AI6Quabplr0KPa-179" source="Gr0Zq-AI6Quabplr0KPa-186" target="Gr0Zq-AI6Quabplr0KPa-221" edge="1">
          <mxGeometry width="50" height="50" relative="1" as="geometry">
            <mxPoint x="345" y="550" as="sourcePoint" />
            <mxPoint x="325" y="510" as="targetPoint" />
            <Array as="points">
              <mxPoint x="338" y="11" />
            </Array>
          </mxGeometry>
        </mxCell>
        <mxCell id="Gr0Zq-AI6Quabplr0KPa-223" style="jumpStyle=arc;html=1;endArrow=classicThin;endFill=1;jettySize=auto;orthogonalLoop=1;strokeColor=none;strokeWidth=2;fontFamily=Comic Sans MS;fontSize=10;rounded=0;startSize=8;endSize=8;curved=1;" parent="Gr0Zq-AI6Quabplr0KPa-179" source="Gr0Zq-AI6Quabplr0KPa-209" target="Gr0Zq-AI6Quabplr0KPa-221" edge="1">
          <mxGeometry relative="1" as="geometry" />
        </mxCell>
        <mxCell id="Gr0Zq-AI6Quabplr0KPa-224" value="" style="whiteSpace=wrap;html=1;rounded=1;arcSize=50;align=center;verticalAlign=middle;container=1;recursiveResize=0;strokeWidth=1;autosize=1;spacing=4;treeFolding=1;" parent="Gr0Zq-AI6Quabplr0KPa-179" vertex="1">
          <mxGeometry x="162" y="253" height="1" as="geometry" />
        </mxCell>
        <mxCell id="Gr0Zq-AI6Quabplr0KPa-225" value="" style="edgeStyle=entityRelationEdgeStyle;startArrow=none;endArrow=none;segment=10;curved=1;strokeWidth=2;strokeColor=#660000;rounded=0;fontSize=12;startSize=8;endSize=8;" parent="Gr0Zq-AI6Quabplr0KPa-179" source="Gr0Zq-AI6Quabplr0KPa-180" target="Gr0Zq-AI6Quabplr0KPa-224" edge="1">
          <mxGeometry relative="1" as="geometry">
            <mxPoint x="53" y="198.50000000000023" as="sourcePoint" />
            <mxPoint x="-27" y="120.5" as="targetPoint" />
          </mxGeometry>
        </mxCell>
        <mxCell id="Gr0Zq-AI6Quabplr0KPa-226" value="Collaboration" style="text;html=1;resizable=0;points=[];align=center;verticalAlign=middle;labelBackgroundColor=none;rotation=-30;fontFamily=Comic Sans MS;" parent="Gr0Zq-AI6Quabplr0KPa-225" vertex="1" connectable="0">
          <mxGeometry x="0.0245" y="2" relative="1" as="geometry">
            <mxPoint x="-10" y="-13" as="offset" />
          </mxGeometry>
        </mxCell>
        <mxCell id="Gr0Zq-AI6Quabplr0KPa-227" value="" style="whiteSpace=wrap;html=1;rounded=1;arcSize=50;align=center;verticalAlign=middle;container=1;recursiveResize=0;strokeWidth=1;autosize=1;spacing=4;treeFolding=1;collapsible=0;" parent="Gr0Zq-AI6Quabplr0KPa-179" vertex="1">
          <mxGeometry x="44" y="304" height="1" as="geometry" />
        </mxCell>
        <mxCell id="Gr0Zq-AI6Quabplr0KPa-228" value="" style="edgeStyle=entityRelationEdgeStyle;startArrow=none;endArrow=none;segment=10;curved=1;strokeColor=#660000;rounded=0;fontSize=12;startSize=8;endSize=8;" parent="Gr0Zq-AI6Quabplr0KPa-179" source="Gr0Zq-AI6Quabplr0KPa-224" target="Gr0Zq-AI6Quabplr0KPa-227" edge="1">
          <mxGeometry relative="1" as="geometry">
            <mxPoint x="-333" y="345.5" as="sourcePoint" />
            <mxPoint x="-333" y="291" as="targetPoint" />
          </mxGeometry>
        </mxCell>
        <mxCell id="Gr0Zq-AI6Quabplr0KPa-229" value="Colleagues" style="text;html=1;resizable=0;points=[];align=center;verticalAlign=middle;labelBackgroundColor=none;fontFamily=Comic Sans MS;rotation=-26;fontSize=12;collapsible=0;" parent="Gr0Zq-AI6Quabplr0KPa-228" vertex="1" connectable="0">
          <mxGeometry x="-0.1124" y="-1" relative="1" as="geometry">
            <mxPoint x="-34" y="8" as="offset" />
          </mxGeometry>
        </mxCell>
        <mxCell id="Gr0Zq-AI6Quabplr0KPa-230" value="" style="whiteSpace=wrap;html=1;rounded=1;arcSize=50;align=center;verticalAlign=middle;container=1;recursiveResize=0;strokeWidth=1;autosize=1;spacing=4;treeFolding=1;collapsible=0;" parent="Gr0Zq-AI6Quabplr0KPa-179" vertex="1">
          <mxGeometry x="51" y="258" height="1" as="geometry" />
        </mxCell>
        <mxCell id="Gr0Zq-AI6Quabplr0KPa-231" value="" style="edgeStyle=entityRelationEdgeStyle;startArrow=none;endArrow=none;segment=10;curved=1;strokeColor=#660000;rounded=0;fontSize=12;startSize=8;endSize=8;" parent="Gr0Zq-AI6Quabplr0KPa-179" source="Gr0Zq-AI6Quabplr0KPa-224" target="Gr0Zq-AI6Quabplr0KPa-230" edge="1">
          <mxGeometry relative="1" as="geometry">
            <mxPoint x="-395" y="268.5" as="sourcePoint" />
            <mxPoint x="-333" y="291" as="targetPoint" />
          </mxGeometry>
        </mxCell>
        <mxCell id="Gr0Zq-AI6Quabplr0KPa-232" value="Sharing" style="text;html=1;resizable=0;points=[];align=center;verticalAlign=middle;labelBackgroundColor=none;fontFamily=Comic Sans MS;rotation=-1;fontSize=12;collapsible=0;" parent="Gr0Zq-AI6Quabplr0KPa-231" vertex="1" connectable="0">
          <mxGeometry x="-0.1124" y="-1" relative="1" as="geometry">
            <mxPoint x="-37" y="-9" as="offset" />
          </mxGeometry>
        </mxCell>
        <mxCell id="Gr0Zq-AI6Quabplr0KPa-233" value="" style="whiteSpace=wrap;html=1;rounded=1;arcSize=50;align=center;verticalAlign=middle;container=1;recursiveResize=0;strokeWidth=1;autosize=1;spacing=4;treeFolding=1;collapsible=0;" parent="Gr0Zq-AI6Quabplr0KPa-179" vertex="1" collapsed="1">
          <mxGeometry x="58" y="216" width="5" as="geometry" />
        </mxCell>
        <mxCell id="Gr0Zq-AI6Quabplr0KPa-234" value="" style="edgeStyle=entityRelationEdgeStyle;startArrow=none;endArrow=none;segment=10;curved=1;strokeColor=#660000;rounded=0;fontSize=12;startSize=8;endSize=8;" parent="Gr0Zq-AI6Quabplr0KPa-179" source="Gr0Zq-AI6Quabplr0KPa-224" target="Gr0Zq-AI6Quabplr0KPa-233" edge="1">
          <mxGeometry relative="1" as="geometry">
            <mxPoint x="-390" y="278.5" as="sourcePoint" />
            <mxPoint x="-328" y="301" as="targetPoint" />
          </mxGeometry>
        </mxCell>
        <mxCell id="Gr0Zq-AI6Quabplr0KPa-235" value="TEAM WORK" style="text;html=1;resizable=0;points=[];align=center;verticalAlign=middle;labelBackgroundColor=none;fontFamily=Comic Sans MS;rotation=20;collapsible=0;" parent="Gr0Zq-AI6Quabplr0KPa-234" vertex="1" connectable="0">
          <mxGeometry x="0.2571" relative="1" as="geometry">
            <mxPoint x="-2" y="-13" as="offset" />
          </mxGeometry>
        </mxCell>
        <mxCell id="Gr0Zq-AI6Quabplr0KPa-236" value="" style="shape=image;html=1;verticalAlign=top;verticalLabelPosition=bottom;labelBackgroundColor=#ffffff;imageAspect=0;aspect=fixed;image=https://cdn3.iconfinder.com/data/icons/tango-icon-library/48/system-users-128.png;dashed=0;fontFamily=Comic Sans MS;fontSize=12;fontColor=#000000;align=center;strokeColor=#000099;strokeWidth=2;fillColor=#D2D3D3;" parent="Gr0Zq-AI6Quabplr0KPa-179" vertex="1">
          <mxGeometry x="165" y="180" width="39" height="37" as="geometry" />
        </mxCell>
        <mxCell id="Gr0Zq-AI6Quabplr0KPa-237" style="edgeStyle=none;jumpStyle=arc;html=1;entryX=0.5;entryY=1;entryPerimeter=0;endArrow=classicThin;endFill=1;jettySize=auto;orthogonalLoop=1;strokeColor=none;strokeWidth=2;fontFamily=Comic Sans MS;fontSize=12;rounded=0;startSize=8;endSize=8;curved=1;" parent="Gr0Zq-AI6Quabplr0KPa-179" source="Gr0Zq-AI6Quabplr0KPa-224" target="Gr0Zq-AI6Quabplr0KPa-236" edge="1">
          <mxGeometry relative="1" as="geometry" />
        </mxCell>
        <mxCell id="Gr0Zq-AI6Quabplr0KPa-238" value="" style="whiteSpace=wrap;html=1;rounded=1;arcSize=50;align=center;verticalAlign=middle;container=1;recursiveResize=0;strokeWidth=1;autosize=1;spacing=4;treeFolding=1;" parent="Gr0Zq-AI6Quabplr0KPa-179" vertex="1">
          <mxGeometry x="257" y="333" height="1" as="geometry" />
        </mxCell>
        <mxCell id="Gr0Zq-AI6Quabplr0KPa-239" value="" style="startArrow=none;endArrow=none;segment=10;strokeWidth=2;strokeColor=#CCCC00;exitX=0.5;exitY=1;curved=1;rounded=0;fontSize=12;startSize=8;endSize=8;" parent="Gr0Zq-AI6Quabplr0KPa-179" source="Gr0Zq-AI6Quabplr0KPa-180" target="Gr0Zq-AI6Quabplr0KPa-238" edge="1">
          <mxGeometry relative="1" as="geometry">
            <mxPoint x="53" y="198.50000000000023" as="sourcePoint" />
            <mxPoint x="-58" y="253.5" as="targetPoint" />
            <Array as="points">
              <mxPoint x="333" y="272" />
              <mxPoint x="318" y="289" />
              <mxPoint x="276" y="309" />
            </Array>
          </mxGeometry>
        </mxCell>
        <mxCell id="Gr0Zq-AI6Quabplr0KPa-240" value="Productivity" style="text;html=1;resizable=0;points=[];align=center;verticalAlign=middle;labelBackgroundColor=none;rotation=-30;fontFamily=Comic Sans MS;" parent="Gr0Zq-AI6Quabplr0KPa-239" vertex="1" connectable="0">
          <mxGeometry x="0.0245" y="2" relative="1" as="geometry">
            <mxPoint x="-24" y="-2" as="offset" />
          </mxGeometry>
        </mxCell>
        <mxCell id="Gr0Zq-AI6Quabplr0KPa-241" value="" style="whiteSpace=wrap;html=1;rounded=1;arcSize=50;align=center;verticalAlign=middle;container=1;recursiveResize=0;strokeWidth=1;autosize=1;spacing=4;treeFolding=1;collapsible=0;" parent="Gr0Zq-AI6Quabplr0KPa-179" vertex="1">
          <mxGeometry x="148" y="375" height="1" as="geometry" />
        </mxCell>
        <mxCell id="Gr0Zq-AI6Quabplr0KPa-242" value="" style="startArrow=none;endArrow=none;segment=10;strokeColor=#CCCC00;curved=1;rounded=0;fontSize=12;startSize=8;endSize=8;" parent="Gr0Zq-AI6Quabplr0KPa-179" source="Gr0Zq-AI6Quabplr0KPa-238" target="Gr0Zq-AI6Quabplr0KPa-241" edge="1">
          <mxGeometry relative="1" as="geometry">
            <mxPoint x="-346" y="466.5" as="sourcePoint" />
            <mxPoint x="-52" y="381" as="targetPoint" />
            <Array as="points">
              <mxPoint x="222" y="366" />
            </Array>
          </mxGeometry>
        </mxCell>
        <mxCell id="Gr0Zq-AI6Quabplr0KPa-243" value="INTUITIVE" style="text;html=1;resizable=0;points=[];align=center;verticalAlign=middle;labelBackgroundColor=none;fontFamily=Comic Sans MS;rotation=-15;fontSize=12;collapsible=0;" parent="Gr0Zq-AI6Quabplr0KPa-242" vertex="1" connectable="0">
          <mxGeometry x="-0.1124" y="-1" relative="1" as="geometry">
            <mxPoint x="-30" y="-10" as="offset" />
          </mxGeometry>
        </mxCell>
        <mxCell id="Gr0Zq-AI6Quabplr0KPa-244" value="" style="whiteSpace=wrap;html=1;rounded=1;arcSize=50;align=center;verticalAlign=middle;container=1;recursiveResize=0;strokeWidth=1;autosize=1;spacing=4;treeFolding=1;collapsible=0;" parent="Gr0Zq-AI6Quabplr0KPa-179" vertex="1">
          <mxGeometry x="140" y="307" height="1" as="geometry" />
        </mxCell>
        <mxCell id="Gr0Zq-AI6Quabplr0KPa-245" value="" style="edgeStyle=entityRelationEdgeStyle;startArrow=none;endArrow=none;segment=10;curved=1;strokeColor=#CCCC00;rounded=0;fontSize=12;startSize=8;endSize=8;" parent="Gr0Zq-AI6Quabplr0KPa-179" source="Gr0Zq-AI6Quabplr0KPa-238" target="Gr0Zq-AI6Quabplr0KPa-244" edge="1">
          <mxGeometry relative="1" as="geometry">
            <mxPoint x="-408" y="389.5" as="sourcePoint" />
            <mxPoint x="-346" y="412" as="targetPoint" />
          </mxGeometry>
        </mxCell>
        <mxCell id="Gr0Zq-AI6Quabplr0KPa-246" value="MORE EFFICIENT" style="text;html=1;resizable=0;points=[];align=center;verticalAlign=middle;labelBackgroundColor=none;fontFamily=Comic Sans MS;rotation=15;fontSize=12;" parent="Gr0Zq-AI6Quabplr0KPa-245" vertex="1" connectable="0">
          <mxGeometry x="-0.1124" y="-1" relative="1" as="geometry">
            <mxPoint x="-6" y="-13" as="offset" />
          </mxGeometry>
        </mxCell>
        <mxCell id="Gr0Zq-AI6Quabplr0KPa-247" value="" style="shape=image;html=1;verticalAlign=top;verticalLabelPosition=bottom;labelBackgroundColor=#ffffff;imageAspect=0;aspect=fixed;image=https://cdn3.iconfinder.com/data/icons/beos/BeOS_flash.png;dashed=0;fontFamily=Comic Sans MS;fontSize=12;fontColor=#000000;align=center;strokeColor=#000099;strokeWidth=2;fillColor=#D2D3D3;rotation=-25;" parent="Gr0Zq-AI6Quabplr0KPa-179" vertex="1">
          <mxGeometry x="302" y="305" width="39" height="37" as="geometry" />
        </mxCell>
        <mxCell id="Gr0Zq-AI6Quabplr0KPa-248" style="edgeStyle=none;jumpStyle=arc;html=1;entryX=0.5;entryY=1;entryPerimeter=0;endArrow=classicThin;endFill=1;jettySize=auto;orthogonalLoop=1;strokeColor=none;strokeWidth=2;fontFamily=Comic Sans MS;fontSize=12;rounded=0;startSize=8;endSize=8;curved=1;" parent="Gr0Zq-AI6Quabplr0KPa-179" source="Gr0Zq-AI6Quabplr0KPa-238" target="Gr0Zq-AI6Quabplr0KPa-247" edge="1">
          <mxGeometry relative="1" as="geometry" />
        </mxCell>
      </root>
    </mxGraphModel>
  </diagram>
  <diagram id="IVDvv2sw0atJUit1J8NQ" name="powerJob">
    <mxGraphModel dx="1434" dy="726" grid="1" gridSize="10" guides="1" tooltips="1" connect="1" arrows="1" fold="1" page="1" pageScale="1" pageWidth="827" pageHeight="1169" math="0" shadow="0">
      <root>
        <mxCell id="0" />
        <mxCell id="1" parent="0" />
        <mxCell id="0qtN-7K-engh0Gil_RKe-1" value="&lt;h2&gt;&lt;b&gt;PowerJob&lt;/b&gt;&lt;/h2&gt;" style="swimlane;fontStyle=0;childLayout=stackLayout;horizontal=1;startSize=30;horizontalStack=0;resizeParent=1;resizeParentMax=0;resizeLast=0;collapsible=1;marginBottom=0;whiteSpace=wrap;html=1;strokeColor=none;" vertex="1" parent="1">
          <mxGeometry x="7" y="19" width="813" height="1572" as="geometry">
            <mxRectangle x="7" y="30" width="813" height="30" as="alternateBounds" />
          </mxGeometry>
        </mxCell>
        <mxCell id="0qtN-7K-engh0Gil_RKe-2" value="" style="swimlane;fontStyle=0;childLayout=stackLayout;horizontal=1;startSize=30;horizontalStack=0;resizeParent=1;resizeParentMax=0;resizeLast=0;collapsible=1;marginBottom=0;whiteSpace=wrap;html=1;fillColor=default;strokeColor=none;align=left;spacingLeft=24;" vertex="1" parent="0qtN-7K-engh0Gil_RKe-1">
          <mxGeometry y="30" width="813" height="1542" as="geometry">
            <mxRectangle y="30" width="813" height="30" as="alternateBounds" />
          </mxGeometry>
        </mxCell>
        <mxCell id="0qtN-7K-engh0Gil_RKe-137" value="" style="rounded=0;whiteSpace=wrap;html=1;strokeColor=none;fontSize=14;fontColor=#000000;fillColor=#FFFFFF;" vertex="1" parent="0qtN-7K-engh0Gil_RKe-2">
          <mxGeometry y="30" width="813" height="7" as="geometry" />
        </mxCell>
        <mxCell id="0qtN-7K-engh0Gil_RKe-3" value="Assets" style="childLayout=tableLayout;recursiveResize=0;strokeColor=#808080;fillColor=default;shadow=0;fontFamily=Courier New;" vertex="1" parent="0qtN-7K-engh0Gil_RKe-2">
          <mxGeometry y="37" width="813" height="1505" as="geometry" />
        </mxCell>
        <mxCell id="0qtN-7K-engh0Gil_RKe-4" style="shape=tableRow;horizontal=0;startSize=0;swimlaneHead=0;swimlaneBody=0;top=0;left=0;bottom=0;right=0;dropTarget=0;collapsible=0;recursiveResize=0;expand=0;fontStyle=1;strokeColor=inherit;fillColor=#FFFFFF;align=left;spacingLeft=6;fontFamily=Courier New;" vertex="1" parent="0qtN-7K-engh0Gil_RKe-3">
          <mxGeometry width="813" height="32" as="geometry" />
        </mxCell>
        <mxCell id="0qtN-7K-engh0Gil_RKe-5" value="&lt;b style=&quot;font-size: 13px;&quot;&gt;（1）简介&lt;/b&gt;" style="connectable=0;recursiveResize=0;strokeColor=inherit;fillColor=#eeeeee;whiteSpace=wrap;html=1;align=left;spacingLeft=6;fontFamily=Courier New;rowspan=1;colspan=6;labelBackgroundColor=none;fontSize=13;" vertex="1" parent="0qtN-7K-engh0Gil_RKe-4">
          <mxGeometry width="813" height="32" as="geometry">
            <mxRectangle width="135" height="32" as="alternateBounds" />
          </mxGeometry>
        </mxCell>
        <mxCell id="0qtN-7K-engh0Gil_RKe-6" style="connectable=0;recursiveResize=0;strokeColor=inherit;fillColor=inherit;whiteSpace=wrap;html=1;align=left;spacingLeft=6;fontFamily=Courier New;" vertex="1" visible="0" parent="0qtN-7K-engh0Gil_RKe-4">
          <mxGeometry x="135" width="137" height="32" as="geometry">
            <mxRectangle width="137" height="32" as="alternateBounds" />
          </mxGeometry>
        </mxCell>
        <mxCell id="0qtN-7K-engh0Gil_RKe-7" style="connectable=0;recursiveResize=0;strokeColor=inherit;fillColor=inherit;whiteSpace=wrap;html=1;align=left;spacingLeft=6;fontFamily=Courier New;" vertex="1" visible="0" parent="0qtN-7K-engh0Gil_RKe-4">
          <mxGeometry x="272" width="135" height="32" as="geometry">
            <mxRectangle width="135" height="32" as="alternateBounds" />
          </mxGeometry>
        </mxCell>
        <mxCell id="0qtN-7K-engh0Gil_RKe-8" style="connectable=0;recursiveResize=0;strokeColor=inherit;fillColor=inherit;whiteSpace=wrap;html=1;align=left;spacingLeft=6;fontFamily=Courier New;" vertex="1" visible="0" parent="0qtN-7K-engh0Gil_RKe-4">
          <mxGeometry x="407" width="136" height="32" as="geometry">
            <mxRectangle width="136" height="32" as="alternateBounds" />
          </mxGeometry>
        </mxCell>
        <mxCell id="0qtN-7K-engh0Gil_RKe-9" style="connectable=0;recursiveResize=0;strokeColor=inherit;fillColor=inherit;whiteSpace=wrap;html=1;align=left;spacingLeft=6;fontFamily=Courier New;" vertex="1" visible="0" parent="0qtN-7K-engh0Gil_RKe-4">
          <mxGeometry x="543" width="135" height="32" as="geometry">
            <mxRectangle width="135" height="32" as="alternateBounds" />
          </mxGeometry>
        </mxCell>
        <mxCell id="0qtN-7K-engh0Gil_RKe-10" style="connectable=0;recursiveResize=0;strokeColor=inherit;fillColor=inherit;whiteSpace=wrap;html=1;align=left;spacingLeft=6;fontFamily=Courier New;" vertex="1" visible="0" parent="0qtN-7K-engh0Gil_RKe-4">
          <mxGeometry x="678" width="135" height="32" as="geometry">
            <mxRectangle width="135" height="32" as="alternateBounds" />
          </mxGeometry>
        </mxCell>
        <mxCell id="0qtN-7K-engh0Gil_RKe-11" style="shape=tableRow;horizontal=0;startSize=0;swimlaneHead=0;swimlaneBody=0;top=0;left=0;bottom=0;right=0;dropTarget=0;collapsible=0;recursiveResize=0;expand=0;fontStyle=1;strokeColor=inherit;fillColor=#FFFFFF;align=left;spacingLeft=6;fontFamily=Courier New;" vertex="1" parent="0qtN-7K-engh0Gil_RKe-3">
          <mxGeometry y="32" width="813" height="109" as="geometry" />
        </mxCell>
        <mxCell id="0qtN-7K-engh0Gil_RKe-12" value="&lt;div&gt;&lt;font style=&quot;font-size: 14px;&quot;&gt;&lt;b&gt;PowerJob 是一个任务调度服务&lt;/b&gt;&lt;/font&gt;&lt;/div&gt;&lt;div&gt;&lt;b&gt;官方网址&lt;/b&gt; &lt;a href=&quot;http://www.powerjob.tech/&quot;&gt;http://www.powerjob.tech/&lt;/a&gt;&lt;br&gt;&lt;/div&gt;&lt;div&gt;&lt;br&gt;&lt;/div&gt;&lt;div&gt;&lt;br&gt;&lt;/div&gt;" style="connectable=0;recursiveResize=0;strokeColor=inherit;fillColor=inherit;whiteSpace=wrap;html=1;align=left;spacingLeft=6;fontFamily=Courier New;rowspan=1;colspan=6;" vertex="1" parent="0qtN-7K-engh0Gil_RKe-11">
          <mxGeometry width="813" height="109" as="geometry">
            <mxRectangle width="135" height="109" as="alternateBounds" />
          </mxGeometry>
        </mxCell>
        <mxCell id="0qtN-7K-engh0Gil_RKe-13" style="connectable=0;recursiveResize=0;strokeColor=inherit;fillColor=inherit;whiteSpace=wrap;html=1;align=left;spacingLeft=6;fontFamily=Courier New;" vertex="1" visible="0" parent="0qtN-7K-engh0Gil_RKe-11">
          <mxGeometry x="135" width="137" height="109" as="geometry">
            <mxRectangle width="137" height="109" as="alternateBounds" />
          </mxGeometry>
        </mxCell>
        <mxCell id="0qtN-7K-engh0Gil_RKe-14" style="connectable=0;recursiveResize=0;strokeColor=inherit;fillColor=inherit;whiteSpace=wrap;html=1;align=left;spacingLeft=6;fontFamily=Courier New;" vertex="1" visible="0" parent="0qtN-7K-engh0Gil_RKe-11">
          <mxGeometry x="272" width="135" height="109" as="geometry">
            <mxRectangle width="135" height="109" as="alternateBounds" />
          </mxGeometry>
        </mxCell>
        <mxCell id="0qtN-7K-engh0Gil_RKe-15" style="connectable=0;recursiveResize=0;strokeColor=inherit;fillColor=inherit;whiteSpace=wrap;html=1;align=left;spacingLeft=6;fontFamily=Courier New;" vertex="1" visible="0" parent="0qtN-7K-engh0Gil_RKe-11">
          <mxGeometry x="407" width="136" height="109" as="geometry">
            <mxRectangle width="136" height="109" as="alternateBounds" />
          </mxGeometry>
        </mxCell>
        <mxCell id="0qtN-7K-engh0Gil_RKe-16" style="connectable=0;recursiveResize=0;strokeColor=inherit;fillColor=inherit;whiteSpace=wrap;html=1;align=left;spacingLeft=6;fontFamily=Courier New;" vertex="1" visible="0" parent="0qtN-7K-engh0Gil_RKe-11">
          <mxGeometry x="543" width="135" height="109" as="geometry">
            <mxRectangle width="135" height="109" as="alternateBounds" />
          </mxGeometry>
        </mxCell>
        <mxCell id="0qtN-7K-engh0Gil_RKe-17" style="connectable=0;recursiveResize=0;strokeColor=inherit;fillColor=inherit;whiteSpace=wrap;html=1;align=left;spacingLeft=6;fontFamily=Courier New;" vertex="1" visible="0" parent="0qtN-7K-engh0Gil_RKe-11">
          <mxGeometry x="678" width="135" height="109" as="geometry">
            <mxRectangle width="135" height="109" as="alternateBounds" />
          </mxGeometry>
        </mxCell>
        <mxCell id="0qtN-7K-engh0Gil_RKe-18" style="shape=tableRow;horizontal=0;startSize=0;swimlaneHead=0;swimlaneBody=0;top=0;left=0;bottom=0;right=0;dropTarget=0;collapsible=0;recursiveResize=0;expand=0;fontStyle=1;strokeColor=inherit;fillColor=#FFFFFF;align=left;spacingLeft=6;fontFamily=Courier New;" vertex="1" parent="0qtN-7K-engh0Gil_RKe-3">
          <mxGeometry y="141" width="813" height="32" as="geometry" />
        </mxCell>
        <mxCell id="0qtN-7K-engh0Gil_RKe-19" value="&lt;b style=&quot;font-size: 14px;&quot;&gt;（2）快速使用示例&lt;/b&gt;" style="connectable=0;recursiveResize=0;strokeColor=inherit;fillColor=#eeeeee;whiteSpace=wrap;html=1;align=left;spacingLeft=6;fontFamily=Courier New;rowspan=1;colspan=6;fontSize=14;" vertex="1" parent="0qtN-7K-engh0Gil_RKe-18">
          <mxGeometry width="813" height="32" as="geometry">
            <mxRectangle width="135" height="32" as="alternateBounds" />
          </mxGeometry>
        </mxCell>
        <mxCell id="0qtN-7K-engh0Gil_RKe-20" style="connectable=0;recursiveResize=0;strokeColor=inherit;fillColor=inherit;whiteSpace=wrap;html=1;align=left;spacingLeft=6;fontFamily=Courier New;" vertex="1" visible="0" parent="0qtN-7K-engh0Gil_RKe-18">
          <mxGeometry x="135" width="137" height="32" as="geometry">
            <mxRectangle width="137" height="32" as="alternateBounds" />
          </mxGeometry>
        </mxCell>
        <mxCell id="0qtN-7K-engh0Gil_RKe-21" style="connectable=0;recursiveResize=0;strokeColor=inherit;fillColor=inherit;whiteSpace=wrap;html=1;align=left;spacingLeft=6;fontFamily=Courier New;" vertex="1" visible="0" parent="0qtN-7K-engh0Gil_RKe-18">
          <mxGeometry x="272" width="135" height="32" as="geometry">
            <mxRectangle width="135" height="32" as="alternateBounds" />
          </mxGeometry>
        </mxCell>
        <mxCell id="0qtN-7K-engh0Gil_RKe-22" style="connectable=0;recursiveResize=0;strokeColor=inherit;fillColor=inherit;whiteSpace=wrap;html=1;align=left;spacingLeft=6;fontFamily=Courier New;" vertex="1" visible="0" parent="0qtN-7K-engh0Gil_RKe-18">
          <mxGeometry x="407" width="136" height="32" as="geometry">
            <mxRectangle width="136" height="32" as="alternateBounds" />
          </mxGeometry>
        </mxCell>
        <mxCell id="0qtN-7K-engh0Gil_RKe-23" style="connectable=0;recursiveResize=0;strokeColor=inherit;fillColor=inherit;whiteSpace=wrap;html=1;align=left;spacingLeft=6;fontFamily=Courier New;" vertex="1" visible="0" parent="0qtN-7K-engh0Gil_RKe-18">
          <mxGeometry x="543" width="135" height="32" as="geometry">
            <mxRectangle width="135" height="32" as="alternateBounds" />
          </mxGeometry>
        </mxCell>
        <mxCell id="0qtN-7K-engh0Gil_RKe-24" style="connectable=0;recursiveResize=0;strokeColor=inherit;fillColor=inherit;whiteSpace=wrap;html=1;align=left;spacingLeft=6;fontFamily=Courier New;" vertex="1" visible="0" parent="0qtN-7K-engh0Gil_RKe-18">
          <mxGeometry x="678" width="135" height="32" as="geometry">
            <mxRectangle width="135" height="32" as="alternateBounds" />
          </mxGeometry>
        </mxCell>
        <mxCell id="0qtN-7K-engh0Gil_RKe-271" style="shape=tableRow;horizontal=0;startSize=0;swimlaneHead=0;swimlaneBody=0;top=0;left=0;bottom=0;right=0;dropTarget=0;collapsible=0;recursiveResize=0;expand=0;fontStyle=1;strokeColor=inherit;fillColor=#FFFFFF;align=left;spacingLeft=6;fontFamily=Courier New;" vertex="1" parent="0qtN-7K-engh0Gil_RKe-3">
          <mxGeometry y="173" width="813" height="168" as="geometry" />
        </mxCell>
        <mxCell id="0qtN-7K-engh0Gil_RKe-272" value="&lt;div&gt;1. 启动 powerjob-server/powerjob-server-start 服务 (需修改配置)&lt;/div&gt;&lt;div&gt;&lt;br&gt;&lt;/div&gt;&lt;div&gt;2. 启动 powerjob-official-processors 服务&amp;nbsp;&amp;nbsp;&amp;nbsp;&amp;nbsp;&amp;nbsp;&amp;nbsp;&amp;nbsp;&amp;nbsp;&amp;nbsp; (官网给的常用任务处理器)&lt;br&gt;&lt;/div&gt;&lt;div&gt;&lt;br&gt;&lt;/div&gt;&lt;div&gt;3. 浏览器输入 127.0.0.1:7700&amp;nbsp;&amp;nbsp; 默认用户密码: ADMIN&amp;nbsp; powerjob_admin&lt;/div&gt;&lt;div&gt;&lt;br&gt;&lt;/div&gt;&lt;div&gt;4. 导入任务文件 //TODO&lt;br&gt;&lt;/div&gt;&lt;div&gt;&amp;nbsp;&lt;/div&gt;" style="connectable=0;recursiveResize=0;strokeColor=inherit;fillColor=inherit;whiteSpace=wrap;html=1;align=left;spacingLeft=6;fontFamily=Courier New;rowspan=1;colspan=6;" vertex="1" parent="0qtN-7K-engh0Gil_RKe-271">
          <mxGeometry width="813" height="168" as="geometry">
            <mxRectangle width="135" height="168" as="alternateBounds" />
          </mxGeometry>
        </mxCell>
        <mxCell id="0qtN-7K-engh0Gil_RKe-273" style="connectable=0;recursiveResize=0;strokeColor=inherit;fillColor=inherit;whiteSpace=wrap;html=1;align=left;spacingLeft=6;fontFamily=Courier New;" vertex="1" visible="0" parent="0qtN-7K-engh0Gil_RKe-271">
          <mxGeometry x="135" width="137" height="168" as="geometry">
            <mxRectangle width="137" height="168" as="alternateBounds" />
          </mxGeometry>
        </mxCell>
        <mxCell id="0qtN-7K-engh0Gil_RKe-274" style="connectable=0;recursiveResize=0;strokeColor=inherit;fillColor=inherit;whiteSpace=wrap;html=1;align=left;spacingLeft=6;fontFamily=Courier New;" vertex="1" visible="0" parent="0qtN-7K-engh0Gil_RKe-271">
          <mxGeometry x="272" width="135" height="168" as="geometry">
            <mxRectangle width="135" height="168" as="alternateBounds" />
          </mxGeometry>
        </mxCell>
        <mxCell id="0qtN-7K-engh0Gil_RKe-275" style="connectable=0;recursiveResize=0;strokeColor=inherit;fillColor=inherit;whiteSpace=wrap;html=1;align=left;spacingLeft=6;fontFamily=Courier New;" vertex="1" visible="0" parent="0qtN-7K-engh0Gil_RKe-271">
          <mxGeometry x="407" width="136" height="168" as="geometry">
            <mxRectangle width="136" height="168" as="alternateBounds" />
          </mxGeometry>
        </mxCell>
        <mxCell id="0qtN-7K-engh0Gil_RKe-276" style="connectable=0;recursiveResize=0;strokeColor=inherit;fillColor=inherit;whiteSpace=wrap;html=1;align=left;spacingLeft=6;fontFamily=Courier New;" vertex="1" visible="0" parent="0qtN-7K-engh0Gil_RKe-271">
          <mxGeometry x="543" width="135" height="168" as="geometry">
            <mxRectangle width="135" height="168" as="alternateBounds" />
          </mxGeometry>
        </mxCell>
        <mxCell id="0qtN-7K-engh0Gil_RKe-277" style="connectable=0;recursiveResize=0;strokeColor=inherit;fillColor=inherit;whiteSpace=wrap;html=1;align=left;spacingLeft=6;fontFamily=Courier New;" vertex="1" visible="0" parent="0qtN-7K-engh0Gil_RKe-271">
          <mxGeometry x="678" width="135" height="168" as="geometry">
            <mxRectangle width="135" height="168" as="alternateBounds" />
          </mxGeometry>
        </mxCell>
        <mxCell id="0qtN-7K-engh0Gil_RKe-67" style="shape=tableRow;horizontal=0;startSize=0;swimlaneHead=0;swimlaneBody=0;top=0;left=0;bottom=0;right=0;dropTarget=0;collapsible=0;recursiveResize=0;expand=0;fontStyle=1;strokeColor=inherit;fillColor=#FFFFFF;align=left;spacingLeft=6;fontFamily=Courier New;" vertex="1" parent="0qtN-7K-engh0Gil_RKe-3">
          <mxGeometry y="341" width="813" height="32" as="geometry" />
        </mxCell>
        <mxCell id="0qtN-7K-engh0Gil_RKe-68" value="&lt;b style=&quot;font-size: 14px;&quot;&gt;（3）基础命令&lt;br style=&quot;font-size: 14px;&quot;&gt;&lt;/b&gt;" style="connectable=0;recursiveResize=0;strokeColor=inherit;fillColor=#eeeeee;whiteSpace=wrap;html=1;align=left;spacingLeft=6;fontFamily=Courier New;rowspan=1;colspan=6;fontSize=14;" vertex="1" parent="0qtN-7K-engh0Gil_RKe-67">
          <mxGeometry width="813" height="32" as="geometry">
            <mxRectangle width="135" height="32" as="alternateBounds" />
          </mxGeometry>
        </mxCell>
        <mxCell id="0qtN-7K-engh0Gil_RKe-69" style="connectable=0;recursiveResize=0;strokeColor=inherit;fillColor=inherit;whiteSpace=wrap;html=1;align=left;spacingLeft=6;fontFamily=Courier New;" vertex="1" visible="0" parent="0qtN-7K-engh0Gil_RKe-67">
          <mxGeometry x="135" width="137" height="32" as="geometry">
            <mxRectangle width="137" height="32" as="alternateBounds" />
          </mxGeometry>
        </mxCell>
        <mxCell id="0qtN-7K-engh0Gil_RKe-70" style="connectable=0;recursiveResize=0;strokeColor=inherit;fillColor=inherit;whiteSpace=wrap;html=1;align=left;spacingLeft=6;fontFamily=Courier New;" vertex="1" visible="0" parent="0qtN-7K-engh0Gil_RKe-67">
          <mxGeometry x="272" width="135" height="32" as="geometry">
            <mxRectangle width="135" height="32" as="alternateBounds" />
          </mxGeometry>
        </mxCell>
        <mxCell id="0qtN-7K-engh0Gil_RKe-71" style="connectable=0;recursiveResize=0;strokeColor=inherit;fillColor=inherit;whiteSpace=wrap;html=1;align=left;spacingLeft=6;fontFamily=Courier New;" vertex="1" visible="0" parent="0qtN-7K-engh0Gil_RKe-67">
          <mxGeometry x="407" width="136" height="32" as="geometry">
            <mxRectangle width="136" height="32" as="alternateBounds" />
          </mxGeometry>
        </mxCell>
        <mxCell id="0qtN-7K-engh0Gil_RKe-72" style="connectable=0;recursiveResize=0;strokeColor=inherit;fillColor=inherit;whiteSpace=wrap;html=1;align=left;spacingLeft=6;fontFamily=Courier New;" vertex="1" visible="0" parent="0qtN-7K-engh0Gil_RKe-67">
          <mxGeometry x="543" width="135" height="32" as="geometry">
            <mxRectangle width="135" height="32" as="alternateBounds" />
          </mxGeometry>
        </mxCell>
        <mxCell id="0qtN-7K-engh0Gil_RKe-73" style="connectable=0;recursiveResize=0;strokeColor=inherit;fillColor=inherit;whiteSpace=wrap;html=1;align=left;spacingLeft=6;fontFamily=Courier New;" vertex="1" visible="0" parent="0qtN-7K-engh0Gil_RKe-67">
          <mxGeometry x="678" width="135" height="32" as="geometry">
            <mxRectangle width="135" height="32" as="alternateBounds" />
          </mxGeometry>
        </mxCell>
        <mxCell id="0qtN-7K-engh0Gil_RKe-25" style="shape=tableRow;horizontal=0;startSize=0;swimlaneHead=0;swimlaneBody=0;top=0;left=0;bottom=0;right=0;dropTarget=0;collapsible=0;recursiveResize=0;expand=0;fontStyle=1;strokeColor=inherit;fillColor=#FFFFFF;align=left;spacingLeft=6;fontFamily=Courier New;" vertex="1" parent="0qtN-7K-engh0Gil_RKe-3">
          <mxGeometry y="373" width="813" height="44" as="geometry" />
        </mxCell>
        <mxCell id="0qtN-7K-engh0Gil_RKe-26" value="" style="connectable=0;recursiveResize=0;strokeColor=inherit;fillColor=inherit;whiteSpace=wrap;html=1;align=left;spacingLeft=6;fontFamily=Courier New;rowspan=1;colspan=3;" vertex="1" parent="0qtN-7K-engh0Gil_RKe-25">
          <mxGeometry width="407" height="44" as="geometry">
            <mxRectangle width="135" height="44" as="alternateBounds" />
          </mxGeometry>
        </mxCell>
        <mxCell id="0qtN-7K-engh0Gil_RKe-27" style="connectable=0;recursiveResize=0;strokeColor=inherit;fillColor=inherit;whiteSpace=wrap;html=1;align=left;spacingLeft=6;fontFamily=Courier New;" vertex="1" visible="0" parent="0qtN-7K-engh0Gil_RKe-25">
          <mxGeometry x="135" width="137" height="44" as="geometry">
            <mxRectangle width="137" height="44" as="alternateBounds" />
          </mxGeometry>
        </mxCell>
        <mxCell id="0qtN-7K-engh0Gil_RKe-28" style="connectable=0;recursiveResize=0;strokeColor=inherit;fillColor=inherit;whiteSpace=wrap;html=1;align=left;spacingLeft=6;fontFamily=Courier New;" vertex="1" visible="0" parent="0qtN-7K-engh0Gil_RKe-25">
          <mxGeometry x="272" width="135" height="44" as="geometry">
            <mxRectangle width="135" height="44" as="alternateBounds" />
          </mxGeometry>
        </mxCell>
        <mxCell id="0qtN-7K-engh0Gil_RKe-29" value="" style="connectable=0;recursiveResize=0;strokeColor=inherit;fillColor=inherit;whiteSpace=wrap;html=1;align=left;spacingLeft=6;fontFamily=Courier New;rowspan=1;colspan=3;" vertex="1" parent="0qtN-7K-engh0Gil_RKe-25">
          <mxGeometry x="407" width="406" height="44" as="geometry">
            <mxRectangle width="136" height="44" as="alternateBounds" />
          </mxGeometry>
        </mxCell>
        <mxCell id="0qtN-7K-engh0Gil_RKe-30" style="connectable=0;recursiveResize=0;strokeColor=inherit;fillColor=inherit;whiteSpace=wrap;html=1;align=left;spacingLeft=6;fontFamily=Courier New;" vertex="1" visible="0" parent="0qtN-7K-engh0Gil_RKe-25">
          <mxGeometry x="543" width="135" height="44" as="geometry">
            <mxRectangle width="135" height="44" as="alternateBounds" />
          </mxGeometry>
        </mxCell>
        <mxCell id="0qtN-7K-engh0Gil_RKe-31" style="connectable=0;recursiveResize=0;strokeColor=inherit;fillColor=inherit;whiteSpace=wrap;html=1;align=left;spacingLeft=6;fontFamily=Courier New;" vertex="1" visible="0" parent="0qtN-7K-engh0Gil_RKe-25">
          <mxGeometry x="678" width="135" height="44" as="geometry">
            <mxRectangle width="135" height="44" as="alternateBounds" />
          </mxGeometry>
        </mxCell>
        <mxCell id="0qtN-7K-engh0Gil_RKe-74" style="shape=tableRow;horizontal=0;startSize=0;swimlaneHead=0;swimlaneBody=0;top=0;left=0;bottom=0;right=0;dropTarget=0;collapsible=0;recursiveResize=0;expand=0;fontStyle=1;strokeColor=inherit;fillColor=#FFFFFF;align=left;spacingLeft=6;fontFamily=Courier New;" vertex="1" parent="0qtN-7K-engh0Gil_RKe-3">
          <mxGeometry y="417" width="813" height="43" as="geometry" />
        </mxCell>
        <mxCell id="0qtN-7K-engh0Gil_RKe-75" value="" style="connectable=0;recursiveResize=0;strokeColor=inherit;fillColor=inherit;whiteSpace=wrap;html=1;align=left;spacingLeft=6;fontFamily=Courier New;rowspan=1;colspan=2;" vertex="1" parent="0qtN-7K-engh0Gil_RKe-74">
          <mxGeometry width="272" height="43" as="geometry">
            <mxRectangle width="135" height="43" as="alternateBounds" />
          </mxGeometry>
        </mxCell>
        <mxCell id="0qtN-7K-engh0Gil_RKe-76" style="connectable=0;recursiveResize=0;strokeColor=inherit;fillColor=inherit;whiteSpace=wrap;html=1;align=left;spacingLeft=6;fontFamily=Courier New;" vertex="1" visible="0" parent="0qtN-7K-engh0Gil_RKe-74">
          <mxGeometry x="135" width="137" height="43" as="geometry">
            <mxRectangle width="137" height="43" as="alternateBounds" />
          </mxGeometry>
        </mxCell>
        <mxCell id="0qtN-7K-engh0Gil_RKe-77" value="" style="connectable=0;recursiveResize=0;strokeColor=inherit;fillColor=inherit;whiteSpace=wrap;html=1;align=left;spacingLeft=6;fontFamily=Courier New;rowspan=1;colspan=2;" vertex="1" parent="0qtN-7K-engh0Gil_RKe-74">
          <mxGeometry x="272" width="271" height="43" as="geometry">
            <mxRectangle width="135" height="43" as="alternateBounds" />
          </mxGeometry>
        </mxCell>
        <mxCell id="0qtN-7K-engh0Gil_RKe-78" style="connectable=0;recursiveResize=0;strokeColor=inherit;fillColor=inherit;whiteSpace=wrap;html=1;align=left;spacingLeft=6;fontFamily=Courier New;" vertex="1" visible="0" parent="0qtN-7K-engh0Gil_RKe-74">
          <mxGeometry x="407" width="136" height="43" as="geometry">
            <mxRectangle width="136" height="43" as="alternateBounds" />
          </mxGeometry>
        </mxCell>
        <mxCell id="0qtN-7K-engh0Gil_RKe-79" value="" style="connectable=0;recursiveResize=0;strokeColor=inherit;fillColor=inherit;whiteSpace=wrap;html=1;align=left;spacingLeft=6;fontFamily=Courier New;rowspan=1;colspan=2;" vertex="1" parent="0qtN-7K-engh0Gil_RKe-74">
          <mxGeometry x="543" width="270" height="43" as="geometry">
            <mxRectangle width="135" height="43" as="alternateBounds" />
          </mxGeometry>
        </mxCell>
        <mxCell id="0qtN-7K-engh0Gil_RKe-80" style="connectable=0;recursiveResize=0;strokeColor=inherit;fillColor=inherit;whiteSpace=wrap;html=1;align=left;spacingLeft=6;fontFamily=Courier New;" vertex="1" visible="0" parent="0qtN-7K-engh0Gil_RKe-74">
          <mxGeometry x="678" width="135" height="43" as="geometry">
            <mxRectangle width="135" height="43" as="alternateBounds" />
          </mxGeometry>
        </mxCell>
        <mxCell id="0qtN-7K-engh0Gil_RKe-81" style="shape=tableRow;horizontal=0;startSize=0;swimlaneHead=0;swimlaneBody=0;top=0;left=0;bottom=0;right=0;dropTarget=0;collapsible=0;recursiveResize=0;expand=0;fontStyle=1;strokeColor=inherit;fillColor=#FFFFFF;align=left;spacingLeft=6;fontFamily=Courier New;" vertex="1" parent="0qtN-7K-engh0Gil_RKe-3">
          <mxGeometry y="460" width="813" height="43" as="geometry" />
        </mxCell>
        <mxCell id="0qtN-7K-engh0Gil_RKe-82" value="" style="connectable=0;recursiveResize=0;strokeColor=inherit;fillColor=inherit;whiteSpace=wrap;html=1;align=left;spacingLeft=6;fontFamily=Courier New;rowspan=1;colspan=2;" vertex="1" parent="0qtN-7K-engh0Gil_RKe-81">
          <mxGeometry width="272" height="43" as="geometry">
            <mxRectangle width="135" height="43" as="alternateBounds" />
          </mxGeometry>
        </mxCell>
        <mxCell id="0qtN-7K-engh0Gil_RKe-83" style="connectable=0;recursiveResize=0;strokeColor=inherit;fillColor=inherit;whiteSpace=wrap;html=1;align=left;spacingLeft=6;fontFamily=Courier New;" vertex="1" visible="0" parent="0qtN-7K-engh0Gil_RKe-81">
          <mxGeometry x="135" width="137" height="43" as="geometry">
            <mxRectangle width="137" height="43" as="alternateBounds" />
          </mxGeometry>
        </mxCell>
        <mxCell id="0qtN-7K-engh0Gil_RKe-84" value="" style="connectable=0;recursiveResize=0;strokeColor=inherit;fillColor=inherit;whiteSpace=wrap;html=1;align=left;spacingLeft=6;fontFamily=Courier New;rowspan=1;colspan=2;" vertex="1" parent="0qtN-7K-engh0Gil_RKe-81">
          <mxGeometry x="272" width="271" height="43" as="geometry">
            <mxRectangle width="135" height="43" as="alternateBounds" />
          </mxGeometry>
        </mxCell>
        <mxCell id="0qtN-7K-engh0Gil_RKe-85" style="connectable=0;recursiveResize=0;strokeColor=inherit;fillColor=inherit;whiteSpace=wrap;html=1;align=left;spacingLeft=6;fontFamily=Courier New;" vertex="1" visible="0" parent="0qtN-7K-engh0Gil_RKe-81">
          <mxGeometry x="407" width="136" height="43" as="geometry">
            <mxRectangle width="136" height="43" as="alternateBounds" />
          </mxGeometry>
        </mxCell>
        <mxCell id="0qtN-7K-engh0Gil_RKe-86" value="" style="connectable=0;recursiveResize=0;strokeColor=inherit;fillColor=inherit;whiteSpace=wrap;html=1;align=left;spacingLeft=6;fontFamily=Courier New;rowspan=1;colspan=2;" vertex="1" parent="0qtN-7K-engh0Gil_RKe-81">
          <mxGeometry x="543" width="270" height="43" as="geometry">
            <mxRectangle width="135" height="43" as="alternateBounds" />
          </mxGeometry>
        </mxCell>
        <mxCell id="0qtN-7K-engh0Gil_RKe-87" style="connectable=0;recursiveResize=0;strokeColor=inherit;fillColor=inherit;whiteSpace=wrap;html=1;align=left;spacingLeft=6;fontFamily=Courier New;" vertex="1" visible="0" parent="0qtN-7K-engh0Gil_RKe-81">
          <mxGeometry x="678" width="135" height="43" as="geometry">
            <mxRectangle width="135" height="43" as="alternateBounds" />
          </mxGeometry>
        </mxCell>
        <mxCell id="0qtN-7K-engh0Gil_RKe-88" style="shape=tableRow;horizontal=0;startSize=0;swimlaneHead=0;swimlaneBody=0;top=0;left=0;bottom=0;right=0;dropTarget=0;collapsible=0;recursiveResize=0;expand=0;fontStyle=1;strokeColor=inherit;fillColor=#FFFFFF;align=left;spacingLeft=6;fontFamily=Courier New;" vertex="1" parent="0qtN-7K-engh0Gil_RKe-3">
          <mxGeometry y="503" width="813" height="64" as="geometry" />
        </mxCell>
        <mxCell id="0qtN-7K-engh0Gil_RKe-89" value="" style="connectable=0;recursiveResize=0;strokeColor=inherit;fillColor=inherit;whiteSpace=wrap;html=1;align=left;spacingLeft=6;fontFamily=Courier New;rowspan=1;colspan=2;" vertex="1" parent="0qtN-7K-engh0Gil_RKe-88">
          <mxGeometry width="272" height="64" as="geometry">
            <mxRectangle width="135" height="64" as="alternateBounds" />
          </mxGeometry>
        </mxCell>
        <mxCell id="0qtN-7K-engh0Gil_RKe-90" style="connectable=0;recursiveResize=0;strokeColor=inherit;fillColor=inherit;whiteSpace=wrap;html=1;align=left;spacingLeft=6;fontFamily=Courier New;" vertex="1" visible="0" parent="0qtN-7K-engh0Gil_RKe-88">
          <mxGeometry x="135" width="137" height="64" as="geometry">
            <mxRectangle width="137" height="64" as="alternateBounds" />
          </mxGeometry>
        </mxCell>
        <mxCell id="0qtN-7K-engh0Gil_RKe-91" value="" style="connectable=0;recursiveResize=0;strokeColor=inherit;fillColor=inherit;whiteSpace=wrap;html=1;align=left;spacingLeft=6;fontFamily=Courier New;rowspan=1;colspan=2;" vertex="1" parent="0qtN-7K-engh0Gil_RKe-88">
          <mxGeometry x="272" width="271" height="64" as="geometry">
            <mxRectangle width="135" height="64" as="alternateBounds" />
          </mxGeometry>
        </mxCell>
        <mxCell id="0qtN-7K-engh0Gil_RKe-92" style="connectable=0;recursiveResize=0;strokeColor=inherit;fillColor=inherit;whiteSpace=wrap;html=1;align=left;spacingLeft=6;fontFamily=Courier New;" vertex="1" visible="0" parent="0qtN-7K-engh0Gil_RKe-88">
          <mxGeometry x="407" width="136" height="64" as="geometry">
            <mxRectangle width="136" height="64" as="alternateBounds" />
          </mxGeometry>
        </mxCell>
        <mxCell id="0qtN-7K-engh0Gil_RKe-93" value="" style="connectable=0;recursiveResize=0;strokeColor=inherit;fillColor=inherit;whiteSpace=wrap;html=1;align=left;spacingLeft=6;fontFamily=Courier New;rowspan=1;colspan=2;" vertex="1" parent="0qtN-7K-engh0Gil_RKe-88">
          <mxGeometry x="543" width="270" height="64" as="geometry">
            <mxRectangle width="135" height="64" as="alternateBounds" />
          </mxGeometry>
        </mxCell>
        <mxCell id="0qtN-7K-engh0Gil_RKe-94" style="connectable=0;recursiveResize=0;strokeColor=inherit;fillColor=inherit;whiteSpace=wrap;html=1;align=left;spacingLeft=6;fontFamily=Courier New;" vertex="1" visible="0" parent="0qtN-7K-engh0Gil_RKe-88">
          <mxGeometry x="678" width="135" height="64" as="geometry">
            <mxRectangle width="135" height="64" as="alternateBounds" />
          </mxGeometry>
        </mxCell>
        <mxCell id="0qtN-7K-engh0Gil_RKe-95" style="shape=tableRow;horizontal=0;startSize=0;swimlaneHead=0;swimlaneBody=0;top=0;left=0;bottom=0;right=0;dropTarget=0;collapsible=0;recursiveResize=0;expand=0;fontStyle=1;strokeColor=inherit;fillColor=#FFFFFF;align=left;spacingLeft=6;fontFamily=Courier New;" vertex="1" parent="0qtN-7K-engh0Gil_RKe-3">
          <mxGeometry y="567" width="813" height="43" as="geometry" />
        </mxCell>
        <mxCell id="0qtN-7K-engh0Gil_RKe-96" value="" style="connectable=0;recursiveResize=0;strokeColor=inherit;fillColor=inherit;whiteSpace=wrap;html=1;align=left;spacingLeft=6;fontFamily=Courier New;rowspan=1;colspan=2;" vertex="1" parent="0qtN-7K-engh0Gil_RKe-95">
          <mxGeometry width="272" height="43" as="geometry">
            <mxRectangle width="135" height="43" as="alternateBounds" />
          </mxGeometry>
        </mxCell>
        <mxCell id="0qtN-7K-engh0Gil_RKe-97" style="connectable=0;recursiveResize=0;strokeColor=inherit;fillColor=inherit;whiteSpace=wrap;html=1;align=left;spacingLeft=6;fontFamily=Courier New;" vertex="1" visible="0" parent="0qtN-7K-engh0Gil_RKe-95">
          <mxGeometry x="135" width="137" height="43" as="geometry">
            <mxRectangle width="137" height="43" as="alternateBounds" />
          </mxGeometry>
        </mxCell>
        <mxCell id="0qtN-7K-engh0Gil_RKe-98" value="" style="connectable=0;recursiveResize=0;strokeColor=inherit;fillColor=inherit;whiteSpace=wrap;html=1;align=left;spacingLeft=6;fontFamily=Courier New;rowspan=1;colspan=2;" vertex="1" parent="0qtN-7K-engh0Gil_RKe-95">
          <mxGeometry x="272" width="271" height="43" as="geometry">
            <mxRectangle width="135" height="43" as="alternateBounds" />
          </mxGeometry>
        </mxCell>
        <mxCell id="0qtN-7K-engh0Gil_RKe-99" style="connectable=0;recursiveResize=0;strokeColor=inherit;fillColor=inherit;whiteSpace=wrap;html=1;align=left;spacingLeft=6;fontFamily=Courier New;" vertex="1" visible="0" parent="0qtN-7K-engh0Gil_RKe-95">
          <mxGeometry x="407" width="136" height="43" as="geometry">
            <mxRectangle width="136" height="43" as="alternateBounds" />
          </mxGeometry>
        </mxCell>
        <mxCell id="0qtN-7K-engh0Gil_RKe-100" value="" style="connectable=0;recursiveResize=0;strokeColor=inherit;fillColor=inherit;whiteSpace=wrap;html=1;align=left;spacingLeft=6;fontFamily=Courier New;rowspan=1;colspan=2;" vertex="1" parent="0qtN-7K-engh0Gil_RKe-95">
          <mxGeometry x="543" width="270" height="43" as="geometry">
            <mxRectangle width="135" height="43" as="alternateBounds" />
          </mxGeometry>
        </mxCell>
        <mxCell id="0qtN-7K-engh0Gil_RKe-101" style="connectable=0;recursiveResize=0;strokeColor=inherit;fillColor=inherit;whiteSpace=wrap;html=1;align=left;spacingLeft=6;fontFamily=Courier New;" vertex="1" visible="0" parent="0qtN-7K-engh0Gil_RKe-95">
          <mxGeometry x="678" width="135" height="43" as="geometry">
            <mxRectangle width="135" height="43" as="alternateBounds" />
          </mxGeometry>
        </mxCell>
        <mxCell id="0qtN-7K-engh0Gil_RKe-102" style="shape=tableRow;horizontal=0;startSize=0;swimlaneHead=0;swimlaneBody=0;top=0;left=0;bottom=0;right=0;dropTarget=0;collapsible=0;recursiveResize=0;expand=0;fontStyle=1;strokeColor=inherit;fillColor=#FFFFFF;align=left;spacingLeft=6;fontFamily=Courier New;" vertex="1" parent="0qtN-7K-engh0Gil_RKe-3">
          <mxGeometry y="610" width="813" height="161" as="geometry" />
        </mxCell>
        <mxCell id="0qtN-7K-engh0Gil_RKe-103" value="" style="connectable=0;recursiveResize=0;strokeColor=inherit;fillColor=inherit;whiteSpace=wrap;html=1;align=left;spacingLeft=6;fontFamily=Courier New;rowspan=1;colspan=2;" vertex="1" parent="0qtN-7K-engh0Gil_RKe-102">
          <mxGeometry width="272" height="161" as="geometry">
            <mxRectangle width="135" height="161" as="alternateBounds" />
          </mxGeometry>
        </mxCell>
        <mxCell id="0qtN-7K-engh0Gil_RKe-104" style="connectable=0;recursiveResize=0;strokeColor=inherit;fillColor=inherit;whiteSpace=wrap;html=1;align=left;spacingLeft=6;fontFamily=Courier New;" vertex="1" visible="0" parent="0qtN-7K-engh0Gil_RKe-102">
          <mxGeometry x="135" width="137" height="161" as="geometry">
            <mxRectangle width="137" height="161" as="alternateBounds" />
          </mxGeometry>
        </mxCell>
        <mxCell id="0qtN-7K-engh0Gil_RKe-105" value="" style="connectable=0;recursiveResize=0;strokeColor=inherit;fillColor=inherit;whiteSpace=wrap;html=1;align=left;spacingLeft=6;fontFamily=Courier New;rowspan=1;colspan=2;" vertex="1" parent="0qtN-7K-engh0Gil_RKe-102">
          <mxGeometry x="272" width="271" height="161" as="geometry">
            <mxRectangle width="135" height="161" as="alternateBounds" />
          </mxGeometry>
        </mxCell>
        <mxCell id="0qtN-7K-engh0Gil_RKe-106" style="connectable=0;recursiveResize=0;strokeColor=inherit;fillColor=inherit;whiteSpace=wrap;html=1;align=left;spacingLeft=6;fontFamily=Courier New;" vertex="1" visible="0" parent="0qtN-7K-engh0Gil_RKe-102">
          <mxGeometry x="407" width="136" height="161" as="geometry">
            <mxRectangle width="136" height="161" as="alternateBounds" />
          </mxGeometry>
        </mxCell>
        <mxCell id="0qtN-7K-engh0Gil_RKe-107" value="" style="connectable=0;recursiveResize=0;strokeColor=inherit;fillColor=inherit;whiteSpace=wrap;html=1;align=left;spacingLeft=6;fontFamily=Courier New;rowspan=1;colspan=2;" vertex="1" parent="0qtN-7K-engh0Gil_RKe-102">
          <mxGeometry x="543" width="270" height="161" as="geometry">
            <mxRectangle width="135" height="161" as="alternateBounds" />
          </mxGeometry>
        </mxCell>
        <mxCell id="0qtN-7K-engh0Gil_RKe-108" style="connectable=0;recursiveResize=0;strokeColor=inherit;fillColor=inherit;whiteSpace=wrap;html=1;align=left;spacingLeft=6;fontFamily=Courier New;" vertex="1" visible="0" parent="0qtN-7K-engh0Gil_RKe-102">
          <mxGeometry x="678" width="135" height="161" as="geometry">
            <mxRectangle width="135" height="161" as="alternateBounds" />
          </mxGeometry>
        </mxCell>
        <mxCell id="0qtN-7K-engh0Gil_RKe-109" style="shape=tableRow;horizontal=0;startSize=0;swimlaneHead=0;swimlaneBody=0;top=0;left=0;bottom=0;right=0;dropTarget=0;collapsible=0;recursiveResize=0;expand=0;fontStyle=1;strokeColor=inherit;fillColor=#FFFFFF;align=left;spacingLeft=6;fontFamily=Courier New;" vertex="1" parent="0qtN-7K-engh0Gil_RKe-3">
          <mxGeometry y="771" width="813" height="137" as="geometry" />
        </mxCell>
        <mxCell id="0qtN-7K-engh0Gil_RKe-110" value="" style="connectable=0;recursiveResize=0;strokeColor=inherit;fillColor=inherit;whiteSpace=wrap;html=1;align=left;spacingLeft=6;fontFamily=Courier New;rowspan=1;colspan=2;" vertex="1" parent="0qtN-7K-engh0Gil_RKe-109">
          <mxGeometry width="272" height="137" as="geometry">
            <mxRectangle width="135" height="137" as="alternateBounds" />
          </mxGeometry>
        </mxCell>
        <mxCell id="0qtN-7K-engh0Gil_RKe-111" style="connectable=0;recursiveResize=0;strokeColor=inherit;fillColor=inherit;whiteSpace=wrap;html=1;align=left;spacingLeft=6;fontFamily=Courier New;" vertex="1" visible="0" parent="0qtN-7K-engh0Gil_RKe-109">
          <mxGeometry x="135" width="137" height="137" as="geometry">
            <mxRectangle width="137" height="137" as="alternateBounds" />
          </mxGeometry>
        </mxCell>
        <mxCell id="0qtN-7K-engh0Gil_RKe-112" value="" style="connectable=0;recursiveResize=0;strokeColor=inherit;fillColor=inherit;whiteSpace=wrap;html=1;align=left;spacingLeft=6;fontFamily=Courier New;rowspan=1;colspan=2;" vertex="1" parent="0qtN-7K-engh0Gil_RKe-109">
          <mxGeometry x="272" width="271" height="137" as="geometry">
            <mxRectangle width="135" height="137" as="alternateBounds" />
          </mxGeometry>
        </mxCell>
        <mxCell id="0qtN-7K-engh0Gil_RKe-113" style="connectable=0;recursiveResize=0;strokeColor=inherit;fillColor=inherit;whiteSpace=wrap;html=1;align=left;spacingLeft=6;fontFamily=Courier New;" vertex="1" visible="0" parent="0qtN-7K-engh0Gil_RKe-109">
          <mxGeometry x="407" width="136" height="137" as="geometry">
            <mxRectangle width="136" height="137" as="alternateBounds" />
          </mxGeometry>
        </mxCell>
        <mxCell id="0qtN-7K-engh0Gil_RKe-114" value="" style="connectable=0;recursiveResize=0;strokeColor=inherit;fillColor=inherit;whiteSpace=wrap;html=1;align=left;spacingLeft=6;fontFamily=Courier New;rowspan=1;colspan=2;" vertex="1" parent="0qtN-7K-engh0Gil_RKe-109">
          <mxGeometry x="543" width="270" height="137" as="geometry">
            <mxRectangle width="135" height="137" as="alternateBounds" />
          </mxGeometry>
        </mxCell>
        <mxCell id="0qtN-7K-engh0Gil_RKe-115" style="connectable=0;recursiveResize=0;strokeColor=inherit;fillColor=inherit;whiteSpace=wrap;html=1;align=left;spacingLeft=6;fontFamily=Courier New;" vertex="1" visible="0" parent="0qtN-7K-engh0Gil_RKe-109">
          <mxGeometry x="678" width="135" height="137" as="geometry">
            <mxRectangle width="135" height="137" as="alternateBounds" />
          </mxGeometry>
        </mxCell>
        <mxCell id="0qtN-7K-engh0Gil_RKe-116" style="shape=tableRow;horizontal=0;startSize=0;swimlaneHead=0;swimlaneBody=0;top=0;left=0;bottom=0;right=0;dropTarget=0;collapsible=0;recursiveResize=0;expand=0;fontStyle=1;strokeColor=inherit;fillColor=#FFFFFF;align=left;spacingLeft=6;fontFamily=Courier New;" vertex="1" parent="0qtN-7K-engh0Gil_RKe-3">
          <mxGeometry y="908" width="813" height="43" as="geometry" />
        </mxCell>
        <mxCell id="0qtN-7K-engh0Gil_RKe-117" value="" style="connectable=0;recursiveResize=0;strokeColor=inherit;fillColor=inherit;whiteSpace=wrap;html=1;align=left;spacingLeft=6;fontFamily=Courier New;rowspan=1;colspan=2;" vertex="1" parent="0qtN-7K-engh0Gil_RKe-116">
          <mxGeometry width="272" height="43" as="geometry">
            <mxRectangle width="135" height="43" as="alternateBounds" />
          </mxGeometry>
        </mxCell>
        <mxCell id="0qtN-7K-engh0Gil_RKe-118" style="connectable=0;recursiveResize=0;strokeColor=inherit;fillColor=inherit;whiteSpace=wrap;html=1;align=left;spacingLeft=6;fontFamily=Courier New;" vertex="1" visible="0" parent="0qtN-7K-engh0Gil_RKe-116">
          <mxGeometry x="135" width="137" height="43" as="geometry">
            <mxRectangle width="137" height="43" as="alternateBounds" />
          </mxGeometry>
        </mxCell>
        <mxCell id="0qtN-7K-engh0Gil_RKe-119" value="" style="connectable=0;recursiveResize=0;strokeColor=inherit;fillColor=inherit;whiteSpace=wrap;html=1;align=left;spacingLeft=6;fontFamily=Courier New;rowspan=1;colspan=2;" vertex="1" parent="0qtN-7K-engh0Gil_RKe-116">
          <mxGeometry x="272" width="271" height="43" as="geometry">
            <mxRectangle width="135" height="43" as="alternateBounds" />
          </mxGeometry>
        </mxCell>
        <mxCell id="0qtN-7K-engh0Gil_RKe-120" style="connectable=0;recursiveResize=0;strokeColor=inherit;fillColor=inherit;whiteSpace=wrap;html=1;align=left;spacingLeft=6;fontFamily=Courier New;" vertex="1" visible="0" parent="0qtN-7K-engh0Gil_RKe-116">
          <mxGeometry x="407" width="136" height="43" as="geometry">
            <mxRectangle width="136" height="43" as="alternateBounds" />
          </mxGeometry>
        </mxCell>
        <mxCell id="0qtN-7K-engh0Gil_RKe-121" value="" style="connectable=0;recursiveResize=0;strokeColor=inherit;fillColor=inherit;whiteSpace=wrap;html=1;align=left;spacingLeft=6;fontFamily=Courier New;rowspan=1;colspan=2;" vertex="1" parent="0qtN-7K-engh0Gil_RKe-116">
          <mxGeometry x="543" width="270" height="43" as="geometry">
            <mxRectangle width="135" height="43" as="alternateBounds" />
          </mxGeometry>
        </mxCell>
        <mxCell id="0qtN-7K-engh0Gil_RKe-122" style="connectable=0;recursiveResize=0;strokeColor=inherit;fillColor=inherit;whiteSpace=wrap;html=1;align=left;spacingLeft=6;fontFamily=Courier New;" vertex="1" visible="0" parent="0qtN-7K-engh0Gil_RKe-116">
          <mxGeometry x="678" width="135" height="43" as="geometry">
            <mxRectangle width="135" height="43" as="alternateBounds" />
          </mxGeometry>
        </mxCell>
        <mxCell id="0qtN-7K-engh0Gil_RKe-123" style="shape=tableRow;horizontal=0;startSize=0;swimlaneHead=0;swimlaneBody=0;top=0;left=0;bottom=0;right=0;dropTarget=0;collapsible=0;recursiveResize=0;expand=0;fontStyle=1;strokeColor=inherit;fillColor=#FFFFFF;align=left;spacingLeft=6;fontFamily=Courier New;" vertex="1" parent="0qtN-7K-engh0Gil_RKe-3">
          <mxGeometry y="951" width="813" height="32" as="geometry" />
        </mxCell>
        <mxCell id="0qtN-7K-engh0Gil_RKe-124" value="&lt;b style=&quot;font-size: 14px;&quot;&gt;（4）实例&lt;br style=&quot;font-size: 14px;&quot;&gt;&lt;/b&gt;" style="connectable=0;recursiveResize=0;strokeColor=inherit;fillColor=#eeeeee;whiteSpace=wrap;html=1;align=left;spacingLeft=6;fontFamily=Courier New;rowspan=1;colspan=6;fontSize=14;" vertex="1" parent="0qtN-7K-engh0Gil_RKe-123">
          <mxGeometry width="813" height="32" as="geometry">
            <mxRectangle width="135" height="32" as="alternateBounds" />
          </mxGeometry>
        </mxCell>
        <mxCell id="0qtN-7K-engh0Gil_RKe-125" style="connectable=0;recursiveResize=0;strokeColor=inherit;fillColor=inherit;whiteSpace=wrap;html=1;align=left;spacingLeft=6;fontFamily=Courier New;" vertex="1" visible="0" parent="0qtN-7K-engh0Gil_RKe-123">
          <mxGeometry x="135" width="137" height="32" as="geometry">
            <mxRectangle width="137" height="32" as="alternateBounds" />
          </mxGeometry>
        </mxCell>
        <mxCell id="0qtN-7K-engh0Gil_RKe-126" style="connectable=0;recursiveResize=0;strokeColor=inherit;fillColor=inherit;whiteSpace=wrap;html=1;align=left;spacingLeft=6;fontFamily=Courier New;" vertex="1" visible="0" parent="0qtN-7K-engh0Gil_RKe-123">
          <mxGeometry x="272" width="135" height="32" as="geometry">
            <mxRectangle width="135" height="32" as="alternateBounds" />
          </mxGeometry>
        </mxCell>
        <mxCell id="0qtN-7K-engh0Gil_RKe-127" style="connectable=0;recursiveResize=0;strokeColor=inherit;fillColor=inherit;whiteSpace=wrap;html=1;align=left;spacingLeft=6;fontFamily=Courier New;" vertex="1" visible="0" parent="0qtN-7K-engh0Gil_RKe-123">
          <mxGeometry x="407" width="136" height="32" as="geometry">
            <mxRectangle width="136" height="32" as="alternateBounds" />
          </mxGeometry>
        </mxCell>
        <mxCell id="0qtN-7K-engh0Gil_RKe-128" style="connectable=0;recursiveResize=0;strokeColor=inherit;fillColor=inherit;whiteSpace=wrap;html=1;align=left;spacingLeft=6;fontFamily=Courier New;" vertex="1" visible="0" parent="0qtN-7K-engh0Gil_RKe-123">
          <mxGeometry x="543" width="135" height="32" as="geometry">
            <mxRectangle width="135" height="32" as="alternateBounds" />
          </mxGeometry>
        </mxCell>
        <mxCell id="0qtN-7K-engh0Gil_RKe-129" style="connectable=0;recursiveResize=0;strokeColor=inherit;fillColor=inherit;whiteSpace=wrap;html=1;align=left;spacingLeft=6;fontFamily=Courier New;" vertex="1" visible="0" parent="0qtN-7K-engh0Gil_RKe-123">
          <mxGeometry x="678" width="135" height="32" as="geometry">
            <mxRectangle width="135" height="32" as="alternateBounds" />
          </mxGeometry>
        </mxCell>
        <mxCell id="0qtN-7K-engh0Gil_RKe-130" style="shape=tableRow;horizontal=0;startSize=0;swimlaneHead=0;swimlaneBody=0;top=0;left=0;bottom=0;right=0;dropTarget=0;collapsible=0;recursiveResize=0;expand=0;fontStyle=1;strokeColor=inherit;fillColor=#FFFFFF;align=left;spacingLeft=6;fontFamily=Courier New;" vertex="1" parent="0qtN-7K-engh0Gil_RKe-3">
          <mxGeometry y="983" width="813" height="522" as="geometry" />
        </mxCell>
        <mxCell id="0qtN-7K-engh0Gil_RKe-131" value="" style="connectable=0;recursiveResize=0;strokeColor=inherit;fillColor=inherit;whiteSpace=wrap;html=1;align=left;spacingLeft=6;fontFamily=Courier New;rowspan=1;colspan=6;" vertex="1" parent="0qtN-7K-engh0Gil_RKe-130">
          <mxGeometry width="813" height="522" as="geometry">
            <mxRectangle width="135" height="522" as="alternateBounds" />
          </mxGeometry>
        </mxCell>
        <mxCell id="0qtN-7K-engh0Gil_RKe-132" style="connectable=0;recursiveResize=0;strokeColor=inherit;fillColor=inherit;whiteSpace=wrap;html=1;align=left;spacingLeft=6;fontFamily=Courier New;" vertex="1" visible="0" parent="0qtN-7K-engh0Gil_RKe-130">
          <mxGeometry x="135" width="137" height="522" as="geometry">
            <mxRectangle width="137" height="522" as="alternateBounds" />
          </mxGeometry>
        </mxCell>
        <mxCell id="0qtN-7K-engh0Gil_RKe-133" style="connectable=0;recursiveResize=0;strokeColor=inherit;fillColor=inherit;whiteSpace=wrap;html=1;align=left;spacingLeft=6;fontFamily=Courier New;" vertex="1" visible="0" parent="0qtN-7K-engh0Gil_RKe-130">
          <mxGeometry x="272" width="135" height="522" as="geometry">
            <mxRectangle width="135" height="522" as="alternateBounds" />
          </mxGeometry>
        </mxCell>
        <mxCell id="0qtN-7K-engh0Gil_RKe-134" style="connectable=0;recursiveResize=0;strokeColor=inherit;fillColor=inherit;whiteSpace=wrap;html=1;align=left;spacingLeft=6;fontFamily=Courier New;" vertex="1" visible="0" parent="0qtN-7K-engh0Gil_RKe-130">
          <mxGeometry x="407" width="136" height="522" as="geometry">
            <mxRectangle width="136" height="522" as="alternateBounds" />
          </mxGeometry>
        </mxCell>
        <mxCell id="0qtN-7K-engh0Gil_RKe-135" style="connectable=0;recursiveResize=0;strokeColor=inherit;fillColor=inherit;whiteSpace=wrap;html=1;align=left;spacingLeft=6;fontFamily=Courier New;" vertex="1" visible="0" parent="0qtN-7K-engh0Gil_RKe-130">
          <mxGeometry x="543" width="135" height="522" as="geometry">
            <mxRectangle width="135" height="522" as="alternateBounds" />
          </mxGeometry>
        </mxCell>
        <mxCell id="0qtN-7K-engh0Gil_RKe-136" style="connectable=0;recursiveResize=0;strokeColor=inherit;fillColor=inherit;whiteSpace=wrap;html=1;align=left;spacingLeft=6;fontFamily=Courier New;" vertex="1" visible="0" parent="0qtN-7K-engh0Gil_RKe-130">
          <mxGeometry x="678" width="135" height="522" as="geometry">
            <mxRectangle width="135" height="522" as="alternateBounds" />
          </mxGeometry>
        </mxCell>
      </root>
    </mxGraphModel>
  </diagram>
</mxfile>
